# Blender 5.0.0
# www.blender.org
mtllib monster1.mtl
o Cube
v -0.151739 1.396510 0.227762
v -0.221740 2.152723 0.319394
v -0.243391 2.004045 -0.000000
v 0.107001 1.988963 0.175730
v 0.104347 1.461816 0.227762
v 0.034646 2.133631 0.319394
v -0.154075 1.237598 -0.000000
v -0.160266 1.648361 0.125902
v -0.183994 2.264449 -0.000000
v -0.245095 1.995963 0.175730
v 0.090403 1.238961 -0.000000
v 0.036007 2.196875 0.000000
v 0.087719 1.729817 0.125902
v -0.000000 1.477648 0.252440
v 0.000000 2.127522 0.351291
v -0.158514 1.650906 0.000000
v 0.133059 1.724726 0.000000
v 0.000000 1.729817 0.213242
v 0.000000 1.241212 -0.000000
v 0.015261 2.224673 0.000000
v 0.137753 1.988772 0.000000
v 0.045819 2.009772 0.240209
v 0.090872 1.772191 0.134049
v -0.172392 1.708650 -0.000000
v -0.174137 1.705199 0.134049
v 0.133826 1.767901 0.000000
v 0.007492 1.775594 0.217651
v -0.159078 1.630764 0.137837
v 0.090255 1.701403 0.137837
v -0.163369 1.626979 0.000000
v 0.135076 1.691045 0.000000
v 0.000000 1.695604 0.218806
v -0.244526 1.998662 0.117048
v -0.195003 2.248940 0.074432
v 0.009744 2.199226 0.218102
v 0.033598 2.184748 0.097230
v -0.203142 2.225137 0.200358
v 0.117270 1.988899 0.117048
v 0.034122 2.183496 0.200358
v 0.009030 2.222317 0.078025
v 0.127539 1.988835 0.058366
v -0.243957 2.001360 0.058366
v 0.004189 2.305171 0.074809
v 0.024995 2.307527 0.000000
v -0.110541 2.342147 0.000000
v -0.091886 2.326638 0.057695
v 0.098087 1.581609 0.182799
v -0.212122 1.416222 0.182800
v -0.213963 1.400617 0.000000
v 0.132100 1.465003 -0.000000
v 0.000000 1.586626 0.235623
v -0.151739 1.396510 -0.227762
v -0.221740 2.152723 -0.319395
v 0.107001 1.988963 -0.175730
v 0.104347 1.461816 -0.227762
v 0.034646 2.133631 -0.319395
v -0.160266 1.648361 -0.125902
v -0.245095 1.995963 -0.175730
v 0.087719 1.729817 -0.125902
v 0.000000 1.477648 -0.252440
v -0.000000 2.127522 -0.351291
v 0.000000 1.729817 -0.213242
v 0.045819 2.009772 -0.240209
v 0.090872 1.772191 -0.134049
v -0.174137 1.705199 -0.134049
v 0.007492 1.775594 -0.217651
v -0.159078 1.630764 -0.137837
v 0.090255 1.701403 -0.137837
v 0.000000 1.695604 -0.218806
v -0.244526 1.998662 -0.117048
v -0.195003 2.248940 -0.074432
v 0.009744 2.199226 -0.218102
v 0.033598 2.184748 -0.097230
v -0.203142 2.225137 -0.200358
v 0.117270 1.988899 -0.117048
v 0.034122 2.183496 -0.200358
v 0.009030 2.222317 -0.078025
v 0.127539 1.988835 -0.058366
v -0.243957 2.001360 -0.058366
v 0.004189 2.305171 -0.074809
v -0.091886 2.326638 -0.057695
v 0.098087 1.581609 -0.182800
v -0.212122 1.416222 -0.182800
v 0.000000 1.586626 -0.235623
vn 0.2239 0.9654 0.1338
vn -0.9761 0.2100 -0.0563
vn -0.2746 -0.1336 0.9522
vn 0.6883 -0.1831 0.7019
vn 0.9325 0.3311 0.1439
vn -0.9958 0.0906 0.0092
vn 0.6655 0.2258 0.7115
vn 0.6267 -0.3788 0.6810
vn -0.1502 -0.6791 0.7185
vn -0.5403 0.2581 0.8009
vn 0.9406 0.1293 0.3140
vn 0.0204 -0.7228 0.6907
vn 0.0447 0.8652 0.4994
vn 0.4640 0.7912 0.3983
vn 0.1607 -0.7624 0.6269
vn 0.9705 -0.0666 0.2319
vn -0.9720 -0.2340 -0.0195
vn -0.9720 -0.2341 -0.0185
vn 0.6930 -0.1830 0.6973
vn -0.3942 -0.1357 0.9090
vn -0.4596 0.2387 0.8554
vn 0.5625 0.2335 0.7932
vn 0.9435 -0.0740 0.3231
vn 0.9740 0.0426 0.2226
vn 0.9159 0.3972 0.0581
vn 0.1142 0.9778 0.1756
vn 0.8063 0.5849 0.0881
vn -0.6344 0.7436 0.2113
vn 0.7342 0.6760 0.0639
vn -0.9827 0.1830 -0.0287
vn -0.0442 0.1498 0.9877
vn 0.8989 0.4252 0.1059
vn -0.9814 0.1910 -0.0189
vn 0.9845 -0.0257 0.1734
vn -0.9733 0.2293 0.0047
vn -0.8388 -0.4979 0.2202
vn 0.9891 -0.0858 0.1193
vn 0.3685 0.2517 0.8949
vn -0.3677 0.2566 0.8938
vn 0.2239 0.9654 -0.1338
vn -0.9761 0.2100 0.0563
vn -0.2746 -0.1336 -0.9522
vn 0.6883 -0.1831 -0.7019
vn 0.9325 0.3311 -0.1439
vn -0.9958 0.0906 -0.0092
vn 0.6655 0.2257 -0.7115
vn 0.6267 -0.3788 -0.6810
vn -0.1502 -0.6791 -0.7185
vn -0.5403 0.2581 -0.8009
vn 0.9406 0.1293 -0.3140
vn 0.0204 -0.7228 -0.6907
vn 0.0447 0.8652 -0.4994
vn 0.4640 0.7912 -0.3983
vn 0.1607 -0.7624 -0.6269
vn 0.9705 -0.0666 -0.2319
vn -0.9720 -0.2340 0.0195
vn -0.9720 -0.2341 0.0185
vn 0.6930 -0.1830 -0.6973
vn -0.3942 -0.1357 -0.9090
vn -0.4596 0.2387 -0.8554
vn 0.5625 0.2335 -0.7932
vn 0.9435 -0.0740 -0.3231
vn 0.9740 0.0426 -0.2226
vn 0.9159 0.3972 -0.0581
vn 0.1142 0.9778 -0.1756
vn 0.8063 0.5849 -0.0881
vn -0.6344 0.7436 -0.2113
vn 0.7342 0.6760 -0.0639
vn -0.9827 0.1830 0.0286
vn -0.0442 0.1498 -0.9877
vn 0.8989 0.4252 -0.1059
vn -0.9814 0.1910 0.0189
vn 0.9845 -0.0257 -0.1734
vn -0.9733 0.2293 -0.0047
vn -0.8388 -0.4979 -0.2202
vn 0.9891 -0.0858 -0.1193
vn 0.3685 0.2517 -0.8949
vn -0.3677 0.2566 -0.8938
vt 0.750000 0.625000
vt 0.875000 0.625000
vt 0.875000 0.666517
vt 0.750000 0.666517
vt 0.562500 0.083483
vt 0.625000 0.083483
vt 0.625000 0.125000
vt 0.562500 0.125000
vt 0.510220 0.875000
vt 0.562500 0.875000
vt 0.562500 1.000000
vt 0.510220 1.000000
vt 0.510220 0.750000
vt 0.562500 0.750000
vt 0.562500 0.708258
vt 0.625000 0.708258
vt 0.625000 0.750000
vt 0.482583 0.000000
vt 0.500000 0.000000
vt 0.500000 0.125000
vt 0.482583 0.125000
vt 0.482583 0.750000
vt 0.500000 0.750000
vt 0.500000 0.875000
vt 0.482583 0.875000
vt 0.625000 0.875000
vt 0.625000 1.000000
vt 0.500000 1.000000
vt 0.482583 1.000000
vt 0.482583 0.625000
vt 0.500000 0.625000
vt 0.250000 0.625000
vt 0.375000 0.625000
vt 0.375000 0.750000
vt 0.250000 0.750000
vt 0.750000 0.708258
vt 0.875000 0.708258
vt 0.875000 0.750000
vt 0.750000 0.750000
vt 0.125000 0.625000
vt 0.125000 0.750000
vt 0.510220 0.625000
vt 0.562500 0.625000
vt 0.562500 0.666517
vt 0.510220 0.000000
vt 0.562500 0.000000
vt 0.562500 0.041742
vt 0.510220 0.125000
vt 0.428791 0.875000
vt 0.428791 1.000000
vt 0.428791 0.750000
vt 0.428791 0.625000
vt 0.625000 0.666517
vt 0.625000 0.625000
vt 0.625000 0.000000
vt 0.625000 0.041742
vt 0.428791 0.000000
vt 0.428791 0.125000
vt 0.375000 0.000000
vt 0.375000 0.125000
vt 0.375000 0.875000
vt 0.375000 1.000000
s 0
f 44/1/1 45/2/1 46/3/1 43/4/1
f 42/5/2 34/6/2 9/7/2 3/8/2
f 27/9/3 22/10/3 10/11/3 25/12/3
f 23/13/4 4/14/4 22/10/4 27/9/4
f 38/15/5 39/16/5 6/17/5 4/14/5
f 28/18/6 8/19/6 16/20/6 30/21/6
f 29/22/7 13/23/7 18/24/7 32/25/7
f 4/14/8 6/17/8 15/26/8 22/10/8
f 22/10/9 15/26/9 2/27/9 10/11/9
f 32/25/10 18/24/10 8/28/10 28/29/10
f 31/30/11 17/31/11 13/23/11 29/22/11
f 19/32/12 11/33/12 5/34/12 14/35/12
f 35/36/13 37/37/13 2/38/13 15/39/13
f 39/16/14 35/36/14 15/39/14 6/17/14
f 7/40/15 19/32/15 14/35/15 1/41/15
f 26/42/16 21/43/16 41/44/16 38/15/16 4/14/16 23/13/16
f 25/45/17 10/46/17 33/47/17 42/5/17 3/8/17 24/48/17
f 8/19/18 25/45/18 24/48/18 16/20/18
f 13/23/19 23/13/19 27/9/19 18/24/19
f 18/24/20 27/9/20 25/12/20 8/28/20
f 51/49/21 32/25/21 28/29/21 48/50/21
f 47/51/22 29/22/22 32/25/22 51/49/22
f 17/31/23 26/42/23 23/13/23 13/23/23
f 50/52/24 31/30/24 29/22/24 47/51/24
f 41/44/25 36/53/25 39/16/25 38/15/25
f 40/4/26 34/3/26 37/37/26 35/36/26
f 12/54/27 20/1/27 40/4/27 36/53/27
f 9/7/28 34/6/28 46/6/28 45/7/28
f 36/53/29 40/4/29 35/36/29 39/16/29
f 10/46/30 2/55/30 37/56/30 33/47/30
f 34/3/31 40/4/31 43/4/31 46/3/31
f 21/43/32 12/54/32 36/53/32 41/44/32
f 33/47/33 37/56/33 34/6/33 42/5/33
f 40/4/34 20/1/34 44/1/34 43/4/34
f 48/57/35 28/18/35 30/21/35 49/58/35
f 1/59/36 48/57/36 49/58/36 7/60/36
f 11/33/37 50/52/37 47/51/37 5/34/37
f 5/34/38 47/51/38 51/49/38 14/61/38
f 14/61/39 51/49/39 48/50/39 1/62/39
f 44/1/40 80/4/40 81/3/40 45/2/40
f 79/5/41 3/8/41 9/7/41 71/6/41
f 66/9/42 65/12/42 58/11/42 63/10/42
f 64/13/43 66/9/43 63/10/43 54/14/43
f 75/15/44 54/14/44 56/17/44 76/16/44
f 67/18/45 30/21/45 16/20/45 57/19/45
f 68/22/46 69/25/46 62/24/46 59/23/46
f 54/14/47 63/10/47 61/26/47 56/17/47
f 63/10/48 58/11/48 53/27/48 61/26/48
f 69/25/49 67/29/49 57/28/49 62/24/49
f 31/30/50 68/22/50 59/23/50 17/31/50
f 19/32/51 60/35/51 55/34/51 11/33/51
f 72/36/52 61/39/52 53/38/52 74/37/52
f 76/16/53 56/17/53 61/39/53 72/36/53
f 7/40/54 52/41/54 60/35/54 19/32/54
f 26/42/55 64/13/55 54/14/55 75/15/55 78/44/55 21/43/55
f 65/45/56 24/48/56 3/8/56 79/5/56 70/47/56 58/46/56
f 57/19/57 16/20/57 24/48/57 65/45/57
f 59/23/58 62/24/58 66/9/58 64/13/58
f 62/24/59 57/28/59 65/12/59 66/9/59
f 84/49/60 83/50/60 67/29/60 69/25/60
f 82/51/61 84/49/61 69/25/61 68/22/61
f 17/31/62 59/23/62 64/13/62 26/42/62
f 50/52/63 82/51/63 68/22/63 31/30/63
f 78/44/64 75/15/64 76/16/64 73/53/64
f 77/4/65 72/36/65 74/37/65 71/3/65
f 12/54/66 73/53/66 77/4/66 20/1/66
f 9/7/67 45/7/67 81/6/67 71/6/67
f 73/53/68 76/16/68 72/36/68 77/4/68
f 58/46/69 70/47/69 74/56/69 53/55/69
f 71/3/70 81/3/70 80/4/70 77/4/70
f 21/43/71 78/44/71 73/53/71 12/54/71
f 70/47/72 79/5/72 71/6/72 74/56/72
f 77/4/73 80/4/73 44/1/73 20/1/73
f 83/57/74 49/58/74 30/21/74 67/18/74
f 52/59/75 7/60/75 49/58/75 83/57/75
f 11/33/76 55/34/76 82/51/76 50/52/76
f 55/34/77 60/61/77 84/49/77 82/51/77
f 60/61/78 52/62/78 83/50/78 84/49/78
o Cube.001
v -0.163964 1.675610 0.433169
v -0.163964 2.124278 0.333633
v -0.163964 1.658273 0.319483
v -0.163964 2.106941 0.219948
v -0.048964 1.675610 0.433169
v -0.048964 2.124278 0.333633
v -0.048964 1.658273 0.319483
v -0.048964 2.106941 0.219948
v -0.176565 1.654486 0.378226
v -0.176565 2.069334 0.354758
v -0.176565 2.128066 0.274891
v -0.176565 2.048198 0.216160
v -0.106464 1.645338 0.315320
v -0.106464 2.117497 0.205592
v -0.036364 2.048198 0.216160
v -0.036364 1.654486 0.378226
v -0.036364 2.128066 0.274891
v -0.036364 2.069334 0.354758
v -0.106464 1.665054 0.447525
v -0.106464 2.138633 0.344190
v -0.203008 2.058766 0.285459
v -0.106464 2.044212 0.190019
v -0.009921 2.058766 0.285459
v -0.106464 2.073321 0.380899
v -0.164874 1.704037 0.427508
v -0.106464 2.154206 0.270905
v -0.160495 1.261056 0.383431
v -0.179780 0.676382 0.353384
v -0.041983 1.268399 0.390483
v -0.027923 0.685790 0.362420
v -0.106464 1.312566 0.412790
v -0.106464 0.106082 0.471857
v -0.164874 1.688202 0.321259
v -0.048055 1.688202 0.321259
v -0.048055 1.704037 0.427508
v -0.178474 1.683675 0.371528
v -0.106464 1.674595 0.309577
v -0.034455 1.683675 0.371528
v -0.106464 1.694531 0.442714
v -0.050787 1.644337 0.434534
v -0.106464 1.633915 0.448239
v -0.162142 1.644337 0.434534
v -0.174343 1.624783 0.381126
v -0.050787 1.629356 0.324436
v -0.106464 1.614941 0.318631
v -0.038586 1.624783 0.381126
v -0.162142 1.629356 0.324436
v -0.170154 1.872717 0.403487
v -0.189555 1.853096 0.332652
v -0.106464 1.836887 0.255667
v -0.023373 1.853096 0.332652
v -0.106464 1.869305 0.423632
v -0.170154 1.846148 0.273880
v -0.042774 1.846148 0.273880
v -0.042774 1.872717 0.403487
v -0.106464 1.529183 0.441949
v -0.149831 1.524858 0.391385
v -0.070893 1.527260 0.350538
v -0.063098 1.524858 0.391385
v -0.142036 1.527260 0.350538
v -0.070893 1.536347 0.433690
v -0.142036 1.536347 0.433690
v -0.106464 1.518656 0.345616
vn -0.9599 0.0135 0.2801
vn -0.9412 0.1784 0.2868
vn -0.9398 0.1881 0.2853
vn -0.9604 0.0128 0.2785
vn -0.9015 0.3487 0.2564
vn -0.9391 0.0546 -0.3393
vn -0.9015 0.2564 -0.3487
vn -0.9382 0.0646 -0.3401
vn -0.9454 -0.1251 -0.3010
vn -0.9445 -0.1254 -0.3035
vn -0.3043 -0.2852 -0.9089
vn -0.3251 -0.0672 -0.9433
vn -0.3249 -0.0622 -0.9437
vn -0.3023 -0.2859 -0.9093
vn -0.3061 0.1667 -0.9373
vn 0.3249 -0.0622 -0.9437
vn 0.3061 0.1667 -0.9373
vn 0.3251 -0.0672 -0.9433
vn 0.3023 -0.2859 -0.9093
vn 0.3043 -0.2852 -0.9089
vn 0.9445 -0.1254 -0.3035
vn 0.9382 0.0646 -0.3401
vn 0.9391 0.0546 -0.3393
vn 0.9454 -0.1251 -0.3010
vn 0.9015 0.2564 -0.3487
vn 0.9398 0.1881 0.2853
vn 0.9015 0.3487 0.2564
vn 0.9412 0.1784 0.2868
vn 0.9604 0.0128 0.2785
vn 0.9599 0.0135 0.2801
vn 0.2957 0.1651 0.9409
vn 0.3159 0.3223 0.8924
vn 0.3161 0.3191 0.8934
vn 0.2915 0.1584 0.9434
vn 0.3061 0.4385 0.8450
vn -0.3161 0.3191 0.8934
vn -0.3061 0.4385 0.8450
vn -0.3159 0.3223 0.8924
vn -0.2915 0.1584 0.9434
vn -0.2957 0.1651 0.9409
vn 0.9733 -0.1096 -0.2019
vn 0.9983 -0.0577 0.0105
vn 0.9966 0.0821 -0.0120
vn -0.0972 -0.2606 -0.9605
vn -0.0033 -0.2603 -0.9655
vn -0.2460 -0.2321 -0.9411
vn 0.2448 -0.0877 0.9656
vn -0.0226 -0.1028 0.9944
vn 0.2459 -0.1288 0.9607
vn -0.9680 -0.1055 0.2278
vn -0.9966 -0.0810 0.0152
vn -0.9991 0.0406 -0.0083
vn 0.3061 0.8450 -0.4385
vn -0.3061 0.8450 -0.4385
vn -0.3061 0.9373 0.1667
vn 0.3061 0.9373 0.1667
vn 0.7236 -0.0190 -0.6899
vn -0.6394 -0.0183 -0.7687
vn -0.9716 -0.1227 -0.2022
vn -0.2791 -0.0918 0.9559
vn -0.3241 -0.1389 0.9358
vn 0.3486 -0.2073 -0.9141
vn 0.9708 -0.0872 0.2233
vn -0.0000 0.0914 0.9958
vn -0.0000 0.1509 0.9885
vn -0.2440 0.1394 0.9597
vn -0.2249 0.1096 0.9682
vn 0.2249 0.1096 0.9682
vn 0.2440 0.1394 0.9597
vn 0.9984 -0.0548 0.0145
vn 0.9989 -0.0457 -0.0090
vn 0.9703 0.0007 0.2418
vn 0.9721 -0.0192 0.2338
vn 0.9705 -0.0799 -0.2277
vn 0.9595 -0.0975 -0.2642
vn -0.0000 -0.1103 -0.9939
vn -0.0000 -0.1747 -0.9846
vn 0.2262 -0.1996 -0.9534
vn 0.1381 -0.0986 -0.9855
vn -0.1381 -0.0986 -0.9855
vn -0.2262 -0.1996 -0.9534
vn -0.9984 -0.0548 0.0145
vn -0.9989 -0.0457 -0.0090
vn -0.9595 -0.0975 -0.2642
vn -0.9705 -0.0799 -0.2277
vn -0.9721 -0.0192 0.2338
vn -0.9703 0.0007 0.2418
vn 0.9628 -0.1061 0.2486
vn 0.9872 -0.1586 0.0190
vn -0.0000 -0.2187 -0.9758
vn -0.1436 -0.1914 -0.9709
vn -0.2394 -0.0070 0.9709
vn -0.0000 -0.0202 0.9998
vn -0.9636 -0.1595 -0.2146
vn -0.9872 -0.1586 0.0190
vn -0.9628 -0.1061 0.2486
vn 0.2394 -0.0070 0.9709
vn 0.1436 -0.1914 -0.9709
vn 0.9636 -0.1595 -0.2146
vn -0.1796 -0.2712 -0.9456
vt 0.436409 0.000000
vt 0.500000 0.000000
vt 0.500000 0.125000
vt 0.436409 0.125000
vt 0.625000 0.000000
vt 0.625000 0.125000
vt 0.625000 0.250000
vt 0.500000 0.250000
vt 0.436409 0.250000
vt 0.500000 0.375000
vt 0.436409 0.375000
vt 0.625000 0.375000
vt 0.625000 0.500000
vt 0.500000 0.500000
vt 0.436409 0.500000
vt 0.500000 0.625000
vt 0.436409 0.625000
vt 0.625000 0.625000
vt 0.625000 0.750000
vt 0.500000 0.750000
vt 0.436409 0.750000
vt 0.500000 0.875000
vt 0.436409 0.875000
vt 0.625000 0.875000
vt 0.625000 1.000000
vt 0.500000 1.000000
vt 0.436409 1.000000
vt 0.375000 0.500000
vt 0.375000 0.625000
vt 0.375000 0.375000
vt 0.375000 0.375000
vt 0.375000 0.750000
vt 0.375000 0.875000
vt 0.375000 0.875000
vt 0.375000 0.000000
vt 0.375000 0.125000
vt 0.750000 0.500000
vt 0.750000 0.625000
vt 0.875000 0.500000
vt 0.875000 0.625000
vt 0.875000 0.750000
vt 0.750000 0.750000
vt 0.125000 0.500000
vt 0.250000 0.500000
vt 0.250000 0.625000
vt 0.187500 0.562500
vt 0.312500 0.625000
vt 0.375000 0.250000
vt 0.375000 0.125000
vt 0.375000 1.000000
vt 0.384025 0.875000
vt 0.384025 1.000000
vt 0.384025 0.750000
vt 0.384025 0.625000
vt 0.384025 0.500000
vt 0.384025 0.375000
vt 0.384025 0.250000
vt 0.384025 0.125000
vt 0.384025 0.000000
vt 0.375000 0.750000
vt 0.375000 0.375000
vt 0.375000 0.250000
vt 0.375000 0.875000
s 1
f 132/63/79 94/64/80 105/65/81 133/66/82
f 94/64/80 86/67/83 95/68/83 105/65/81
f 105/65/84 95/68/85 88/69/85 96/70/86
f 133/66/87 105/65/84 96/70/86 137/71/88
f 137/71/89 96/70/90 106/72/91 134/73/92
f 96/70/90 88/69/93 98/74/93 106/72/91
f 106/72/94 98/74/95 92/75/95 99/76/96
f 134/73/97 106/72/94 99/76/96 138/77/98
f 138/77/99 99/76/100 107/78/101 135/79/102
f 99/76/100 92/75/103 101/80/103 107/78/101
f 107/78/104 101/80/105 90/81/105 102/82/106
f 135/79/107 107/78/104 102/82/106 139/83/108
f 139/83/109 102/82/110 108/84/111 136/85/112
f 102/82/110 90/81/113 104/86/113 108/84/111
f 108/84/114 104/86/115 86/87/115 94/88/116
f 136/85/117 108/84/114 94/88/116 132/89/118
f 142/90/119 143/91/120 113/90/121
f 147/92/122 142/90/123 113/90/124 115/93/124
f 145/94/125 140/95/126 115/96/127 113/94/127
f 146/97/128 141/98/129 111/97/130
f 92/75/131 98/99/131 110/100/131 101/80/131
f 98/99/132 88/101/132 95/102/132 110/100/132
f 110/100/133 95/102/133 86/103/133 104/104/133
f 101/80/134 110/100/134 104/104/134 90/81/134
f 111/105/135 115/106/135 116/107/135 112/108/135
f 115/106/136 113/91/136 114/109/136 116/107/136
f 141/98/129 144/110/137 111/111/130
f 140/95/126 146/112/138 111/112/139 115/96/139
f 144/110/140 147/92/140 115/93/140 111/110/140
f 143/91/120 145/94/141 113/91/121
f 103/96/142 123/113/143 109/114/144 85/112/145
f 89/94/146 119/115/147 123/113/143 103/96/142
f 100/91/148 122/116/149 119/115/150 89/94/151
f 91/90/152 118/117/153 122/116/149 100/91/148
f 97/93/154 121/118/155 118/117/156 91/90/157
f 87/110/158 117/119/159 121/118/155 97/93/154
f 93/111/160 120/120/161 117/119/162 87/110/163
f 85/97/164 109/121/165 120/120/161 93/111/160
f 100/91/148 89/94/151 124/122/166 130/91/167
f 87/110/158 97/93/154 129/123/168 131/124/169
f 103/96/142 85/112/145 126/112/170 125/125/171
f 93/111/160 87/110/163 131/124/172 127/98/173
f 85/97/164 93/111/160 127/98/173 126/97/174
f 89/94/146 103/96/142 125/125/171 124/122/175
f 97/93/154 91/90/157 128/90/176 129/123/168
f 91/90/152 100/91/148 130/91/167 128/90/177
f 123/113/143 136/85/117 132/89/118 109/114/144
f 119/115/147 139/83/109 136/85/112 123/113/143
f 122/116/149 135/79/107 139/83/108 119/115/150
f 118/117/153 138/77/99 135/79/102 122/116/149
f 121/118/155 134/73/97 138/77/98 118/117/156
f 117/119/159 137/71/89 134/73/92 121/118/155
f 120/120/161 133/66/87 137/71/88 117/119/162
f 109/121/165 132/63/79 133/66/82 120/120/161
f 130/91/167 124/122/166 145/94/141 143/91/120
f 131/124/169 129/123/168 147/92/122 144/110/178
f 125/125/171 126/112/170 146/112/138 140/95/126
f 127/98/173 131/124/172 144/110/137 141/98/129
f 126/97/174 127/98/173 141/98/129 146/97/128
f 124/122/175 125/125/171 140/95/126 145/94/125
f 129/123/168 128/90/176 142/90/123 147/92/122
f 128/90/177 130/91/167 143/91/120 142/90/119
o Cube.002
v -0.171020 0.826632 0.251012
v -0.122779 1.454938 0.199835
v -0.171020 0.818995 0.132087
v -0.122779 1.400058 0.072737
v -0.017978 0.828400 0.251012
v 0.095762 1.457403 0.217447
v -0.017978 0.820763 0.132087
v 0.069008 1.398124 0.068777
v -0.186142 0.807691 0.190913
v -0.139349 1.381903 0.239898
v -0.136779 1.433064 0.132029
v -0.139349 1.326701 0.070768
v -0.102012 0.803873 0.116965
v -0.058893 1.408690 0.054919
v 0.084130 1.326701 0.070768
v -0.002856 0.809459 0.190913
v 0.084130 1.433776 0.132823
v 0.084130 1.381903 0.239898
v -0.102012 0.811510 0.266134
v -0.000000 1.476650 0.246661
v -0.171084 1.354302 0.160424
v 0.000000 1.316289 0.040789
v 0.115866 1.354302 0.160424
v 0.000000 1.382132 0.264786
v -0.247644 0.662287 0.199060
v -0.000000 1.463755 0.122412
v -0.134270 1.157277 0.269644
v -0.134270 1.125528 0.044802
v 0.093024 1.116689 0.044802
v 0.093024 1.148438 0.269644
v -0.159592 1.131746 0.172194
v 0.000000 1.107405 0.020558
v 0.118346 1.122908 0.172194
v 0.000000 1.145687 0.290762
v -0.259037 0.233155 0.160695
v -0.274160 0.222588 0.203317
v -0.259037 0.236372 0.233954
v -0.115497 0.219038 0.160695
v -0.190029 0.218033 0.145573
v -0.115497 0.222255 0.233954
v -0.100375 0.208471 0.203317
v -0.190029 0.221250 0.249076
v -0.000786 0.167095 0.207714
v -0.232522 0.669172 0.128449
v -0.090823 0.618841 0.128449
v -0.075700 0.611956 0.199060
v -0.232522 0.695222 0.276836
v -0.159831 0.626700 0.291958
v -0.159831 0.600650 0.113327
v -0.090823 0.644891 0.276836
v -0.233795 0.383359 0.149405
v -0.123560 0.365052 0.201826
v -0.233795 0.394571 0.248968
v -0.179456 0.351996 0.134283
v -0.138682 0.385542 0.248968
v -0.248917 0.374081 0.201826
v -0.138682 0.374330 0.149405
v -0.179456 0.363207 0.264090
v -0.206102 0.760501 0.193557
v -0.054877 0.764069 0.130906
v -0.120777 0.751531 0.274515
v -0.190980 0.770371 0.130906
v -0.039755 0.754199 0.193557
v -0.190980 0.783983 0.259393
v -0.120777 0.737918 0.115784
v -0.054877 0.777682 0.259393
v -0.167212 0.850758 0.123043
v -0.006476 0.851427 0.123043
v -0.006476 0.861562 0.252943
v -0.167212 0.860893 0.252943
v -0.183391 0.841270 0.188973
v -0.091441 0.835325 0.106975
v 0.009703 0.841938 0.188973
v -0.091441 0.846137 0.268686
v -0.250188 0.101674 0.165624
v -0.250392 0.106452 0.211697
v -0.250188 0.104891 0.242334
v 0.115811 0.104180 0.144132
v -0.170524 0.098487 0.153953
v 0.097932 0.107398 0.282157
v 0.109235 0.093613 0.211698
v -0.170524 0.101704 0.257457
v -0.171376 0.099438 0.211698
v -0.010692 0.140994 0.258055
v -0.180276 0.161477 0.253266
v -0.254613 0.170632 0.238144
v -0.010692 0.137777 0.152413
v -0.180276 0.158260 0.149763
v -0.254613 0.167415 0.163159
v -0.262276 0.164520 0.207507
v -0.171020 0.826632 -0.251012
v -0.122779 1.454938 -0.199835
v -0.171020 0.818995 -0.132087
v -0.122779 1.400058 -0.072737
v -0.017978 0.828400 -0.251012
v 0.095762 1.457403 -0.217447
v -0.017978 0.820763 -0.132087
v 0.069008 1.398124 -0.068777
v -0.186142 0.807691 -0.190913
v -0.139349 1.381903 -0.239898
v -0.136779 1.433064 -0.132029
v -0.139349 1.326701 -0.070768
v -0.102012 0.803873 -0.116965
v -0.058893 1.408690 -0.054919
v 0.084130 1.326701 -0.070768
v -0.002856 0.809459 -0.190913
v 0.084130 1.433776 -0.132823
v 0.084130 1.381903 -0.239898
v -0.102012 0.811510 -0.266134
v 0.000000 1.476650 -0.246661
v -0.171084 1.354302 -0.160424
v 0.000000 1.316290 -0.040789
v 0.115866 1.354302 -0.160424
v 0.000000 1.382132 -0.264786
v -0.247644 0.662287 -0.199060
v 0.000000 1.463754 -0.122412
v -0.134270 1.157277 -0.269644
v -0.134270 1.125528 -0.044802
v 0.093024 1.116689 -0.044802
v 0.093024 1.148438 -0.269644
v -0.159592 1.131746 -0.172194
v 0.000000 1.107405 -0.020558
v 0.118346 1.122908 -0.172194
v 0.000000 1.145688 -0.290762
v -0.259037 0.233155 -0.160695
v -0.274160 0.222588 -0.203317
v -0.259037 0.236372 -0.233954
v -0.115497 0.219038 -0.160695
v -0.190029 0.218033 -0.145573
v -0.115497 0.222255 -0.233954
v -0.100375 0.208471 -0.203317
v -0.190029 0.221250 -0.249076
v -0.000786 0.167095 -0.207714
v -0.232522 0.669171 -0.128449
v -0.090823 0.618841 -0.128449
v -0.075700 0.611956 -0.199060
v -0.232522 0.695222 -0.276836
v -0.159831 0.626700 -0.291958
v -0.159831 0.600649 -0.113327
v -0.090823 0.644891 -0.276836
v -0.233795 0.383359 -0.149405
v -0.123560 0.365052 -0.201826
v -0.233795 0.394570 -0.248968
v -0.179456 0.351996 -0.134283
v -0.138682 0.385542 -0.248968
v -0.248917 0.374081 -0.201826
v -0.138682 0.374330 -0.149405
v -0.179456 0.363207 -0.264090
v -0.206102 0.760501 -0.193557
v -0.054877 0.764069 -0.130906
v -0.120777 0.751531 -0.274515
v -0.190980 0.770371 -0.130906
v -0.039755 0.754199 -0.193557
v -0.190980 0.783983 -0.259393
v -0.120777 0.737918 -0.115784
v -0.054877 0.777682 -0.259393
v -0.167212 0.850758 -0.123043
v -0.006476 0.851427 -0.123043
v -0.006476 0.861562 -0.252943
v -0.167212 0.860893 -0.252943
v -0.183391 0.841270 -0.188974
v -0.091441 0.835325 -0.106975
v 0.009703 0.841939 -0.188974
v -0.091441 0.846137 -0.268686
v -0.250188 0.101674 -0.165624
v -0.250392 0.106452 -0.211698
v -0.250188 0.104891 -0.242335
v 0.115811 0.104180 -0.144132
v -0.170524 0.098487 -0.153953
v 0.097932 0.107398 -0.282157
v 0.109235 0.093613 -0.211698
v -0.170524 0.101704 -0.257457
v -0.171376 0.099438 -0.211698
v -0.010692 0.140994 -0.258055
v -0.180276 0.161477 -0.253266
v -0.254613 0.170632 -0.238144
v -0.010692 0.137777 -0.152413
v -0.180276 0.158260 -0.149763
v -0.254613 0.167415 -0.163159
v -0.262276 0.164520 -0.207507
vn -0.9511 -0.0066 0.3087
vn -0.9129 0.3767 0.1569
vn -0.8979 0.2357 -0.3716
vn -0.9678 -0.0295 -0.2498
vn -0.1824 0.1078 -0.9773
vn -0.2285 0.0361 -0.9729
vn 0.1999 0.1619 -0.9663
vn 0.2795 0.1111 -0.9537
vn 0.9653 0.0332 -0.2589
vn 0.9076 0.2106 -0.3633
vn 0.9857 0.1516 0.0734
vn 0.9548 0.0495 0.2930
vn 0.2480 0.1187 0.9615
vn 0.3020 0.2017 0.9317
vn -0.2745 0.3396 0.8996
vn -0.1600 0.1167 0.9802
vn -0.2538 -0.0448 -0.9662
vn -0.2608 -0.0652 0.9632
vn -0.9510 0.1476 -0.2718
vn 0.9523 0.1303 -0.2758
vn 0.2147 0.7434 -0.6335
vn -0.2318 0.8355 -0.4983
vn -0.1727 0.9713 -0.1633
vn 0.2420 0.9534 -0.1802
vn -0.1761 -0.0273 0.9840
vn 0.2140 -0.1337 0.9676
vn 0.8896 -0.3260 0.3199
vn 0.9034 -0.3791 -0.2003
vn 0.2549 -0.3650 -0.8955
vn -0.2193 -0.2352 -0.9469
vn -0.9760 0.0629 -0.2085
vn -0.9702 0.0938 0.2232
vn -0.9874 -0.1345 -0.0831
vn -0.0150 0.0219 -0.9996
vn 0.4167 0.8941 0.1643
vn -0.1891 0.0441 0.9810
vn 0.9421 0.1234 0.3120
vn -0.9421 0.1403 0.3045
vn 0.2686 -0.0833 0.9596
vn 0.2652 -0.0635 -0.9621
vn 0.2325 -0.0448 -0.9716
vn 0.1943 0.0759 0.9780
vn -0.9120 0.4091 0.0314
vn 0.9334 -0.2204 0.2831
vn 0.9404 -0.2377 -0.2433
vn -0.9121 0.3776 -0.1595
vn -0.0744 0.1880 0.9793
vn -0.1567 0.0733 -0.9849
vn 0.3052 -0.1220 -0.9444
vn 0.3108 -0.1403 0.9401
vn -0.9713 -0.0059 0.2377
vn 0.9321 -0.1915 0.3076
vn 0.9458 -0.1967 -0.2583
vn -0.9709 -0.0056 -0.2394
vn -0.2923 -0.0833 0.9527
vn -0.2787 -0.0642 -0.9582
vn -0.1846 0.0826 -0.9793
vn -0.1384 0.2103 0.9678
vn -0.9119 0.3775 -0.1612
vn 0.7971 -0.5292 -0.2907
vn 0.7830 -0.5079 0.3591
vn -0.9074 0.4129 0.0788
vn 0.1816 0.0574 0.9817
vn 0.2193 -0.0808 -0.9723
vn -0.9719 0.0940 0.2160
vn -0.9705 0.0581 -0.2338
vn -0.2506 -0.2264 -0.9413
vn 0.2369 -0.3606 -0.9021
vn 0.8784 -0.3842 -0.2844
vn 0.8879 -0.3254 0.3252
vn 0.2021 -0.1300 0.9707
vn -0.2123 -0.0193 0.9770
vn -0.0601 -0.9967 0.0544
vn -0.0016 -0.9971 -0.0766
vn -0.0064 -0.9907 0.1362
vn -0.0651 -0.9978 0.0101
vn -0.0581 0.2214 0.9735
vn 0.4056 0.9019 -0.1486
vn -0.1658 -0.0709 -0.9836
vn -0.9835 -0.1204 0.1352
vn -0.9223 -0.0962 0.3742
vn -0.2068 -0.0751 -0.9755
vn 0.4895 0.8248 -0.2830
vn 0.0604 0.2433 0.9681
vn -0.1993 0.0429 0.9790
vn 0.4669 0.8414 0.2723
vn 0.0797 0.0935 -0.9924
vn -0.9523 -0.1400 -0.2712
vn -0.9511 -0.0066 -0.3087
vn -0.9129 0.3767 -0.1569
vn -0.8979 0.2357 0.3716
vn -0.9678 -0.0295 0.2498
vn -0.1824 0.1078 0.9773
vn -0.2285 0.0361 0.9729
vn 0.1999 0.1619 0.9663
vn 0.2795 0.1111 0.9537
vn 0.9653 0.0332 0.2589
vn 0.9076 0.2106 0.3633
vn 0.9857 0.1516 -0.0734
vn 0.9548 0.0495 -0.2930
vn 0.2480 0.1187 -0.9615
vn 0.3020 0.2017 -0.9317
vn -0.2745 0.3396 -0.8996
vn -0.1600 0.1167 -0.9802
vn -0.2538 -0.0448 0.9662
vn -0.2608 -0.0652 -0.9632
vn -0.9510 0.1476 0.2718
vn 0.9523 0.1303 0.2758
vn 0.2147 0.7434 0.6335
vn -0.2318 0.8355 0.4983
vn -0.1727 0.9713 0.1633
vn 0.2420 0.9534 0.1802
vn -0.1761 -0.0273 -0.9840
vn 0.2140 -0.1337 -0.9676
vn 0.8896 -0.3260 -0.3199
vn 0.9034 -0.3791 0.2003
vn 0.2549 -0.3650 0.8955
vn -0.2193 -0.2352 0.9469
vn -0.9760 0.0629 0.2085
vn -0.9702 0.0938 -0.2232
vn -0.9874 -0.1345 0.0831
vn -0.0150 0.0219 0.9996
vn 0.4167 0.8941 -0.1643
vn -0.1891 0.0441 -0.9810
vn 0.9421 0.1234 -0.3120
vn -0.9421 0.1403 -0.3045
vn 0.2686 -0.0833 -0.9596
vn 0.2652 -0.0635 0.9621
vn 0.2325 -0.0448 0.9716
vn 0.1943 0.0759 -0.9780
vn -0.9120 0.4091 -0.0314
vn 0.9334 -0.2204 -0.2831
vn 0.9404 -0.2377 0.2433
vn -0.9121 0.3776 0.1595
vn -0.0744 0.1880 -0.9793
vn -0.1567 0.0733 0.9849
vn 0.3052 -0.1220 0.9444
vn 0.3108 -0.1403 -0.9401
vn -0.9713 -0.0059 -0.2377
vn 0.9321 -0.1915 -0.3076
vn 0.9458 -0.1967 0.2583
vn -0.9709 -0.0056 0.2394
vn -0.2923 -0.0833 -0.9527
vn -0.2787 -0.0642 0.9582
vn -0.1846 0.0826 0.9793
vn -0.1384 0.2103 -0.9678
vn -0.9119 0.3775 0.1612
vn 0.7971 -0.5292 0.2907
vn 0.7830 -0.5079 -0.3591
vn -0.9074 0.4129 -0.0788
vn 0.1816 0.0574 -0.9817
vn 0.2193 -0.0808 0.9723
vn -0.9719 0.0940 -0.2160
vn -0.9705 0.0581 0.2338
vn -0.2506 -0.2264 0.9413
vn 0.2369 -0.3606 0.9021
vn 0.8784 -0.3842 0.2844
vn 0.8879 -0.3254 -0.3252
vn 0.2021 -0.1300 -0.9707
vn -0.2123 -0.0193 -0.9770
vn -0.0601 -0.9967 -0.0544
vn -0.0016 -0.9971 0.0766
vn -0.0064 -0.9907 -0.1362
vn -0.0651 -0.9978 -0.0101
vn -0.0581 0.2214 -0.9735
vn 0.4056 0.9019 0.1486
vn -0.1658 -0.0709 0.9836
vn -0.9835 -0.1204 -0.1352
vn -0.9223 -0.0962 -0.3742
vn -0.2068 -0.0751 0.9755
vn 0.4895 0.8248 0.2830
vn 0.0604 0.2433 -0.9681
vn -0.1993 0.0429 -0.9790
vn 0.4669 0.8414 -0.2723
vn 0.0797 0.0935 0.9924
vn -0.9523 -0.1400 0.2712
vt 0.451746 0.000000
vt 0.500000 0.000000
vt 0.500000 0.125000
vt 0.451746 0.125000
vt 0.625000 0.000000
vt 0.625000 0.125000
vt 0.625000 0.250000
vt 0.500000 0.250000
vt 0.451746 0.250000
vt 0.500000 0.375000
vt 0.451746 0.375000
vt 0.625000 0.375000
vt 0.625000 0.500000
vt 0.500000 0.500000
vt 0.451746 0.500000
vt 0.500000 0.625000
vt 0.451746 0.625000
vt 0.625000 0.625000
vt 0.625000 0.750000
vt 0.500000 0.750000
vt 0.451746 0.750000
vt 0.500000 0.875000
vt 0.451746 0.875000
vt 0.625000 0.875000
vt 0.625000 1.000000
vt 0.500000 1.000000
vt 0.451746 1.000000
vt 0.375000 0.250000
vt 0.375000 0.375000
vt 0.375000 0.375000
vt 0.375000 0.250000
vt 0.375000 0.875000
vt 0.375000 1.000000
vt 0.375000 0.875000
vt 0.375000 0.125000
vt 0.375000 0.125000
vt 0.375000 0.500000
vt 0.375000 0.625000
vt 0.750000 0.500000
vt 0.750000 0.625000
vt 0.875000 0.500000
vt 0.875000 0.625000
vt 0.875000 0.750000
vt 0.750000 0.750000
vt 0.382952 0.875000
vt 0.382952 1.000000
vt 0.382952 0.750000
vt 0.382952 0.625000
vt 0.382952 0.500000
vt 0.382952 0.375000
vt 0.382952 0.250000
vt 0.382952 0.125000
vt 0.382952 0.000000
vt 0.375000 0.125000
vt 0.375000 0.375000
vt 0.375000 0.500000
vt 0.375000 0.625000
vt 0.375000 0.750000
vt 0.375000 0.750000
vt 0.375000 1.000000
vt 0.375000 0.000000
vt 0.375000 0.875000
vt 0.375000 0.000000
vt 0.375000 0.250000
vt 0.125000 0.500000
vt 0.250000 0.500000
vt 0.250000 0.625000
vt 0.125000 0.625000
vt 0.250000 0.750000
vt 0.125000 0.750000
vt 0.375000 0.000000
s 0
f 174/126/179 157/127/179 168/128/179 178/129/179
f 157/127/180 149/130/180 158/131/180 168/128/180
f 168/128/181 158/131/181 151/132/181 159/133/181
f 178/129/182 168/128/182 159/133/182 175/134/182
f 175/134/183 159/133/183 169/135/183 179/136/183
f 159/133/184 151/132/184 161/137/184 169/135/184
f 169/135/185 161/137/185 155/138/185 162/139/185
f 179/136/186 169/135/186 162/139/186 176/140/186
f 176/140/187 162/139/187 170/141/187 180/142/187
f 162/139/188 155/138/188 164/143/188 170/141/188
f 170/141/189 164/143/189 153/144/189 165/145/189
f 180/142/190 170/141/190 165/145/190 177/146/190
f 177/146/191 165/145/191 171/147/191 181/148/191
f 165/145/192 153/144/192 167/149/192 171/147/192
f 171/147/193 167/149/193 149/150/193 157/151/193
f 181/148/194 171/147/194 157/151/194 174/152/194
f 198/153/195 201/154/195 186/155/195 182/156/195
f 205/157/196 200/158/196 184/158/196 189/159/196
f 203/160/197 198/153/197 182/156/197 183/161/197
f 204/162/198 199/163/198 188/163/198 185/162/198
f 155/138/199 161/164/199 173/165/199 164/143/199
f 161/164/200 151/166/200 158/167/200 173/165/200
f 173/165/201 158/167/201 149/168/201 167/169/201
f 164/143/202 173/165/202 167/169/202 153/144/202
f 221/170/203 181/148/203 174/152/203 217/171/203
f 216/172/204 177/146/204 181/148/204 221/170/204
f 220/173/205 180/142/205 177/146/205 216/172/205
f 215/174/206 176/140/206 180/142/206 220/173/206
f 219/175/207 179/136/207 176/140/207 215/174/207
f 214/176/208 175/134/208 179/136/208 219/175/208
f 218/177/209 178/129/209 175/134/209 214/176/209
f 217/178/210 174/126/210 178/129/210 218/177/210
f 237/179/211 236/156/211 222/156/211 223/161/211
f 235/180/212 234/181/212 225/162/212 226/155/212
f 190/182/213 231/183/213 227/184/213 228/163/213
f 232/159/214 233/185/214 224/158/214 229/159/214
f 199/163/215 202/184/215 187/184/215 188/163/215
f 200/186/216 203/160/216 183/161/216 184/186/216
f 202/184/217 205/157/217 189/159/217 187/184/217
f 201/154/218 204/162/218 185/162/218 186/155/218
f 212/154/219 207/162/219 192/162/219 196/154/219
f 213/184/220 208/157/220 195/187/220 197/184/220
f 211/186/221 206/161/221 172/161/221 194/188/221
f 210/163/222 213/184/222 197/184/222 193/163/222
f 207/162/223 210/163/223 193/163/223 192/162/223
f 206/161/224 209/156/224 191/189/224 172/161/224
f 208/157/225 211/158/225 194/158/225 195/187/225
f 209/156/226 212/154/226 196/154/226 191/189/226
f 196/154/227 192/162/227 204/162/227 201/154/227
f 197/184/228 195/187/228 205/157/228 202/184/228
f 194/188/229 172/161/229 203/160/229 200/186/229
f 193/163/230 197/184/230 202/184/230 199/163/230
f 192/162/231 193/163/231 199/163/231 204/162/231
f 172/161/232 191/189/232 198/153/232 203/160/232
f 195/187/233 194/158/233 200/158/233 205/157/233
f 191/189/234 196/154/234 201/154/234 198/153/234
f 150/156/235 160/155/235 212/154/235 209/156/235
f 166/159/236 148/158/236 211/158/236 208/157/236
f 156/161/237 150/156/237 209/156/237 206/161/237
f 154/162/238 163/163/238 210/163/238 207/162/238
f 163/163/239 152/184/239 213/184/239 210/163/239
f 148/186/240 156/161/240 206/161/240 211/186/240
f 152/184/241 166/159/241 208/157/241 213/184/241
f 160/155/242 154/162/242 207/162/242 212/154/242
f 148/186/243 217/178/243 218/177/243 156/161/243
f 156/161/244 218/177/244 214/176/244 150/156/244
f 150/156/245 214/176/245 219/175/245 160/155/245
f 160/155/246 219/175/246 215/174/246 154/162/246
f 154/162/247 215/174/247 220/173/247 163/163/247
f 163/163/248 220/173/248 216/172/248 152/184/248
f 152/184/249 216/172/249 221/170/249 166/159/249
f 166/159/250 221/170/250 217/171/250 148/158/250
f 222/190/251 226/191/251 230/192/251 223/193/251
f 226/191/252 225/162/252 228/163/252 230/192/252
f 230/192/253 228/163/253 227/184/253 229/194/253
f 223/193/254 230/192/254 229/194/254 224/195/254
f 231/183/255 232/159/255 229/159/255 227/184/255
f 234/181/256 190/182/256 228/163/256 225/162/256
f 236/156/257 235/180/257 226/155/257 222/156/257
f 233/196/258 237/179/258 223/161/258 224/186/258
f 184/186/259 183/161/259 237/179/259 233/196/259
f 182/156/260 186/155/260 235/180/260 236/156/260
f 185/162/261 188/163/261 190/182/261 234/181/261
f 187/184/262 189/159/262 232/159/262 231/183/262
f 189/159/263 184/158/263 233/185/263 232/159/263
f 188/163/264 187/184/264 231/183/264 190/182/264
f 186/155/265 185/162/265 234/181/265 235/180/265
f 183/161/266 182/156/266 236/156/266 237/179/266
f 264/126/267 268/129/267 258/128/267 247/127/267
f 247/127/268 258/128/268 248/131/268 239/130/268
f 258/128/269 249/133/269 241/132/269 248/131/269
f 268/129/270 265/134/270 249/133/270 258/128/270
f 265/134/271 269/136/271 259/135/271 249/133/271
f 249/133/272 259/135/272 251/137/272 241/132/272
f 259/135/273 252/139/273 245/138/273 251/137/273
f 269/136/274 266/140/274 252/139/274 259/135/274
f 266/140/275 270/142/275 260/141/275 252/139/275
f 252/139/276 260/141/276 254/143/276 245/138/276
f 260/141/277 255/145/277 243/144/277 254/143/277
f 270/142/278 267/146/278 255/145/278 260/141/278
f 267/146/279 271/148/279 261/147/279 255/145/279
f 255/145/280 261/147/280 257/149/280 243/144/280
f 261/147/281 247/151/281 239/150/281 257/149/281
f 271/148/282 264/152/282 247/151/282 261/147/282
f 288/153/283 272/156/283 276/155/283 291/154/283
f 295/157/284 279/159/284 274/158/284 290/158/284
f 293/160/285 273/161/285 272/156/285 288/153/285
f 294/162/286 275/162/286 278/163/286 289/163/286
f 245/138/287 254/143/287 263/165/287 251/164/287
f 251/164/288 263/165/288 248/167/288 241/166/288
f 263/165/289 257/169/289 239/168/289 248/167/289
f 254/143/290 243/144/290 257/169/290 263/165/290
f 311/170/291 307/171/291 264/152/291 271/148/291
f 306/172/292 311/170/292 271/148/292 267/146/292
f 310/173/293 306/172/293 267/146/293 270/142/293
f 305/174/294 310/173/294 270/142/294 266/140/294
f 309/175/295 305/174/295 266/140/295 269/136/295
f 304/176/296 309/175/296 269/136/296 265/134/296
f 308/177/297 304/176/297 265/134/297 268/129/297
f 307/178/298 308/177/298 268/129/298 264/126/298
f 327/179/299 313/161/299 312/156/299 326/156/299
f 325/180/300 316/155/300 315/162/300 324/181/300
f 280/182/301 318/163/301 317/184/301 321/183/301
f 322/159/302 319/159/302 314/158/302 323/185/302
f 289/163/303 278/163/303 277/184/303 292/184/303
f 290/186/304 274/186/304 273/161/304 293/160/304
f 292/184/305 277/184/305 279/159/305 295/157/305
f 291/154/306 276/155/306 275/162/306 294/162/306
f 302/154/307 286/154/307 282/162/307 297/162/307
f 303/184/308 287/184/308 285/187/308 298/157/308
f 301/186/309 284/188/309 262/161/309 296/161/309
f 300/163/310 283/163/310 287/184/310 303/184/310
f 297/162/311 282/162/311 283/163/311 300/163/311
f 296/161/312 262/161/312 281/189/312 299/156/312
f 298/157/313 285/187/313 284/158/313 301/158/313
f 299/156/314 281/189/314 286/154/314 302/154/314
f 286/154/315 291/154/315 294/162/315 282/162/315
f 287/184/316 292/184/316 295/157/316 285/187/316
f 284/188/317 290/186/317 293/160/317 262/161/317
f 283/163/318 289/163/318 292/184/318 287/184/318
f 282/162/319 294/162/319 289/163/319 283/163/319
f 262/161/320 293/160/320 288/153/320 281/189/320
f 285/187/321 295/157/321 290/158/321 284/158/321
f 281/189/322 288/153/322 291/154/322 286/154/322
f 240/156/323 299/156/323 302/154/323 250/155/323
f 256/159/324 298/157/324 301/158/324 238/158/324
f 246/161/325 296/161/325 299/156/325 240/156/325
f 244/162/326 297/162/326 300/163/326 253/163/326
f 253/163/327 300/163/327 303/184/327 242/184/327
f 238/186/328 301/186/328 296/161/328 246/161/328
f 242/184/329 303/184/329 298/157/329 256/159/329
f 250/155/330 302/154/330 297/162/330 244/162/330
f 238/186/331 246/161/331 308/177/331 307/178/331
f 246/161/332 240/156/332 304/176/332 308/177/332
f 240/156/333 250/155/333 309/175/333 304/176/333
f 250/155/334 244/162/334 305/174/334 309/175/334
f 244/162/335 253/163/335 310/173/335 305/174/335
f 253/163/336 242/184/336 306/172/336 310/173/336
f 242/184/337 256/159/337 311/170/337 306/172/337
f 256/159/338 238/158/338 307/171/338 311/170/338
f 312/190/339 313/193/339 320/192/339 316/191/339
f 316/191/340 320/192/340 318/163/340 315/162/340
f 320/192/341 319/194/341 317/184/341 318/163/341
f 313/193/342 314/195/342 319/194/342 320/192/342
f 321/183/343 317/184/343 319/159/343 322/159/343
f 324/181/344 315/162/344 318/163/344 280/182/344
f 326/156/345 312/156/345 316/155/345 325/180/345
f 323/196/346 314/186/346 313/161/346 327/179/346
f 274/186/347 323/196/347 327/179/347 273/161/347
f 272/156/348 326/156/348 325/180/348 276/155/348
f 275/162/349 324/181/349 280/182/349 278/163/349
f 277/184/350 321/183/350 322/159/350 279/159/350
f 279/159/351 322/159/351 323/185/351 274/158/351
f 278/163/352 280/182/352 321/183/352 277/184/352
f 276/155/353 325/180/353 324/181/353 275/162/353
f 273/161/354 327/179/354 326/156/354 272/156/354
o Cube.003
v 0.054696 2.402350 0.054338
v 0.005746 2.527019 0.067165
v -0.007339 2.480750 0.008567
v 0.084858 2.455416 -0.033002
v 0.116109 2.406123 0.055392
v 0.009761 2.514949 0.082751
v 0.004156 2.429515 -0.003220
v 0.039032 2.501933 0.088005
v 0.072135 2.400679 -0.011130
v 0.020547 2.514559 0.042050
v 0.042679 2.475971 -0.025322
v 0.040062 2.571994 0.013045
v 0.047440 2.528866 0.025966
v -0.092366 2.325591 0.070082
v -0.068745 2.477783 0.098085
v 0.051779 2.357500 0.093301
v -0.110992 2.315489 0.000000
v -0.161431 2.433182 0.075921
v -0.075443 2.496031 -0.004232
v -0.017595 2.511919 0.122958
v 0.111052 2.491821 0.001044
v -0.181189 2.501832 0.000000
v 0.034967 2.365269 0.003403
v 0.100524 2.574317 0.000000
v 0.053282 2.293982 0.085162
v -0.027825 2.593498 0.103200
v -0.163579 2.419116 0.000000
v -0.172577 2.493371 0.080247
v 0.155582 2.420610 -0.000275
v -0.007365 2.433182 0.115010
v 0.053282 2.263417 -0.003546
v -0.027825 2.644949 0.000000
v -0.092366 2.325591 -0.070081
v -0.158756 2.601790 -0.048227
v 0.053860 2.359812 -0.089708
v 0.081897 2.543330 -0.084574
v -0.161431 2.433182 -0.075921
v -0.017595 2.511919 -0.122958
v 0.083159 2.491512 -0.080247
v 0.100429 2.439694 -0.075921
v 0.053282 2.293982 -0.092254
v -0.045826 2.642110 -0.046956
v -0.172577 2.493371 -0.080247
v -0.007365 2.433182 -0.115010
v 0.067004 2.582134 0.026049
v 0.072134 2.576973 0.026099
v 0.088838 2.562842 0.036644
v 0.063903 2.575824 0.037619
v 0.060351 2.551059 0.088825
v 0.061973 2.552440 0.087956
v 0.096834 2.530574 0.033961
v 0.092385 2.560779 0.036951
v 0.023824 2.515533 0.106283
v 0.114046 2.472886 0.000681
v 0.104075 2.510588 0.015746
v 0.018899 2.503145 0.107423
v 0.036235 2.501041 0.100141
v 0.131146 2.467059 0.000000
v 0.051059 2.488335 0.093399
v 0.059753 2.453027 0.090093
v 0.137454 2.441001 0.020765
v 0.114483 2.416415 0.052568
v 0.072564 2.451469 0.085533
v 0.104351 2.414351 0.072191
v 0.096079 2.439431 0.077498
v 0.102056 2.421269 0.075029
v 0.114509 2.401571 0.043850
v 0.107310 2.379894 0.044932
v 0.114509 2.401571 0.021009
v 0.107310 2.379894 0.019926
v 0.107310 2.278777 0.044075
v 0.107310 2.302013 0.021234
v 0.114509 2.437378 -0.031689
v 0.107310 2.415701 -0.032771
v 0.114509 2.425592 -0.014343
v 0.107310 2.403915 -0.015426
v 0.107310 2.388226 -0.037275
v 0.107310 2.376440 -0.019930
v 0.107310 2.287973 -0.024324
v 0.095594 2.437659 -0.070653
v 0.088394 2.415982 -0.071735
v 0.105051 2.437518 -0.051171
v 0.097852 2.415841 -0.052253
v 0.084385 2.366827 -0.072437
v 0.093843 2.366687 -0.052955
v 0.081873 2.313709 -0.069449
v 0.091331 2.326524 -0.049967
v 0.123068 2.406405 0.069128
v 0.115869 2.384728 0.070210
v 0.106998 2.290929 0.067886
vn 0.6890 0.3706 -0.6228
vn 0.3973 0.9140 0.0825
vn 0.4905 -0.7974 -0.3516
vn 0.5785 -0.7629 0.2886
vn -0.1507 -0.6246 0.7663
vn 0.3759 -0.6623 0.6482
vn -0.3959 0.2007 0.8961
vn 0.3530 0.3234 0.8779
vn 0.8548 -0.0288 0.5181
vn -0.3175 -0.3069 0.8972
vn 0.4662 -0.8232 -0.3240
vn 0.3068 0.2908 0.9063
vn 0.2210 0.2635 0.9390
vn 0.5553 -0.0661 0.8290
vn 0.8585 -0.2878 -0.4244
vn 0.3902 0.9158 0.0946
vn 0.8134 0.5423 0.2104
vn -0.0606 0.9973 -0.0416
vn 0.7866 0.3006 -0.5393
vn 0.7717 0.3031 -0.5591
vn 0.5519 -0.6959 -0.4594
vn -0.8463 -0.4930 0.2020
vn 0.0918 0.9864 0.1366
vn -0.9772 -0.1989 0.0745
vn -0.2470 -0.1229 0.9612
vn 0.9566 0.1190 0.2660
vn 0.6018 -0.7894 0.1210
vn 0.3061 -0.0355 0.9513
vn -0.5743 0.8164 0.0607
vn -0.1972 -0.2410 0.9503
vn 0.9857 0.1281 -0.1091
vn -0.2604 -0.9275 0.2681
vn 0.8452 0.4429 0.2990
vn -0.9410 0.3100 0.1358
vn 0.4394 0.8056 0.3974
vn -0.8463 -0.4930 -0.2020
vn -0.5552 0.4592 0.6934
vn 0.3645 -0.0108 -0.9311
vn -0.9772 -0.1989 -0.0745
vn -0.2470 -0.1229 -0.9612
vn 0.9566 0.0727 -0.2820
vn 0.6239 -0.7568 -0.1952
vn 0.3670 -0.0145 -0.9301
vn 0.2225 0.3882 -0.8943
vn -0.2240 0.3907 -0.8929
vn -0.2178 -0.2245 -0.9498
vn 0.9884 0.0980 0.1162
vn -0.2718 -0.9241 -0.2686
vn 0.8262 0.4048 -0.3918
vn -0.4205 0.3322 0.8443
vn 0.4831 0.8061 -0.3418
vn -0.6009 0.3058 0.7386
vn 0.3081 0.9145 0.2624
vn 0.8038 -0.3629 -0.4713
vn 0.2966 0.2142 0.9307
vn -0.1546 -0.1199 0.9807
vn -0.6721 0.6866 0.2772
vn 0.3664 -0.0193 0.9302
vn 0.6896 0.6931 0.2099
vn -0.7163 -0.1264 0.6863
vn 0.1501 0.6053 -0.7817
vn -0.0926 -0.6888 0.7190
vn -0.0118 0.5391 -0.8422
vn 0.9490 -0.3152 -0.0000
vn 1.0000 -0.0000 -0.0000
vn 0.9322 -0.2994 -0.2035
vn 0.8663 -0.2666 -0.4225
vn 0.8974 -0.0670 -0.4361
vn 0.9065 -0.0754 -0.4155
vn 0.9153 -0.3164 -0.2494
vn 0.9486 -0.0821 -0.3055
vt 0.818182 0.157461
vt 0.863636 0.236191
vt 0.904536 0.165351
vt 0.884860 0.157461
vt 0.772727 0.236191
vt 0.181819 0.314921
vt 0.227273 0.393651
vt 0.237419 0.376079
vt 0.218558 0.316679
vt 0.216992 0.314921
vt 0.000000 0.314921
vt 0.045455 0.393651
vt 0.090910 0.314921
vt 0.727273 0.314921
vt 0.754957 0.352361
vt 0.790171 0.363438
vt 0.818182 0.314921
vt 0.863636 0.393651
vt 0.909091 0.314921
vt 0.073739 0.442641
vt 0.116640 0.427816
vt 0.136365 0.393651
vt 0.246998 0.427816
vt 0.251430 0.393651
vt 0.045455 0.236191
vt 0.136365 0.236191
vt 0.727273 0.157461
vt 0.954545 0.236191
vt 0.938241 0.207951
vt 0.161103 0.193343
vt 0.375000 0.000000
vt 0.500000 0.000000
vt 0.500000 0.125000
vt 0.375000 0.125000
vt 0.562500 0.000000
vt 0.625000 0.000000
vt 0.625000 0.125000
vt 0.562500 0.125000
vt 0.500000 0.875000
vt 0.562500 0.875000
vt 0.562500 1.000000
vt 0.500000 1.000000
vt 0.562500 0.625000
vt 0.625000 0.625000
vt 0.625000 0.679614
vt 0.597185 0.675848
vt 0.577480 0.648771
vt 0.375000 0.625000
vt 0.500000 0.625000
vt 0.494544 0.662734
vt 0.472509 0.711615
vt 0.466537 0.728674
vt 0.473816 0.745583
vt 0.480906 0.750000
vt 0.375000 0.750000
vt 0.500000 0.755044
vt 0.375000 0.875000
vt 0.625000 0.875000
vt 0.625000 1.000000
vt 0.375000 1.000000
vt 0.250000 0.625000
vt 0.250000 0.750000
vt 0.125000 0.625000
vt 0.125000 0.750000
vt 0.530817 0.625000
vt 0.500000 0.659189
vt 0.750000 0.625000
vt 0.875000 0.625000
vt 0.875000 0.750000
vt 0.750000 0.750000
vt 0.647698 0.750000
vt 0.654835 0.677809
vt 0.652934 0.659366
vt 0.648420 0.661864
vt 0.628824 0.678782
vt 0.500000 0.750000
vt 0.562500 0.750000
vt 0.625000 0.750000
vt 0.558244 0.625000
vt 0.539622 0.655496
vt 0.702589 0.244379
vt 0.690600 0.290709
vt 0.698281 0.314921
vt 0.060285 0.210505
vt 0.108822 0.188485
vt 0.562500 0.829113
vt 0.573719 0.823338
vt 0.622751 0.774882
vt 0.625000 0.772698
vt 0.835353 0.442641
vt 0.816304 0.393651
vt 0.831188 0.439351
vt 0.707235 0.236191
vt 0.718807 0.172124
vt 0.503871 0.755113
vt 0.514549 0.777881
vt 0.516402 0.792295
vt 0.552759 0.792332
vt 0.562500 0.809035
vt 0.969125 0.210491
vt 0.706281 0.351280
vt 0.739558 0.136183
vt 0.789550 0.121358
vt 0.752621 0.130564
vt 0.839891 0.119859
vt 0.000000 0.000000
vt 1.000000 0.000000
vt 1.000000 1.000000
vt 0.000000 1.000000
vt 1.000000 1.000000
s 0
f 328/197/355 334/198/355 387/199/355 390/200/355
f 328/197/356 336/201/356 334/198/356
f 329/202/357 339/203/357 375/204/357 377/205/357 376/206/357
f 330/207/358 340/208/358 337/209/358
f 331/210/359 348/211/359 382/212/359 338/213/359
f 338/213/360 340/214/360 330/215/360
f 340/208/361 374/216/361 373/217/361 339/218/361
f 340/208/362 339/218/362 337/209/362
f 337/209/363 339/218/363 329/202/363
f 339/203/364 373/219/364 372/220/364
f 339/203/365 372/220/365 375/204/365
f 336/201/366 331/210/366 338/213/366
f 336/201/367 338/213/367 334/198/367
f 334/198/368 338/213/368 330/215/368
f 335/221/369 330/207/369 337/209/369
f 335/221/370 337/209/370 333/222/370
f 333/222/371 337/209/371 329/202/371
f 332/223/372 336/201/372 328/197/372
f 334/198/373 330/215/373 335/224/373
f 334/198/374 335/224/374 386/225/374 387/199/374
f 329/202/375 376/206/375 380/226/375 333/222/375
f 341/227/376 345/228/376 354/229/376 344/230/376
f 355/231/377 342/232/377 346/233/377 349/234/377
f 345/228/378 355/231/378 349/234/378 354/229/378
f 357/235/379 347/236/379 355/237/379 345/238/379
f 348/239/380 351/240/380 379/241/380 378/242/380 382/243/380
f 350/244/381 356/245/381 388/246/381 389/247/381 332/248/381 391/249/381 393/250/381 343/251/381
f 343/251/382 393/250/382 392/252/382 357/235/382 352/253/382
f 347/236/383 353/254/383 342/255/383 355/237/383
f 352/253/384 357/235/384 345/238/384 341/256/384
f 358/257/385 350/244/385 343/251/385 352/258/385
f 344/259/386 358/257/386 352/258/386 341/260/386
f 356/245/387 385/261/387 388/262/387
f 359/263/388 346/264/388 342/265/388 353/266/388
f 351/240/389 359/263/389 353/266/389 377/267/389 375/268/389 372/269/389 373/270/389 374/271/389 379/241/389
f 360/227/390 344/230/390 354/229/390 364/228/390
f 370/231/391 349/234/391 346/233/391 361/232/391
f 367/272/392 371/235/392 365/236/392 366/273/392
f 364/228/393 354/229/393 349/234/393 370/231/393
f 371/235/394 364/238/394 370/237/394 365/236/394
f 348/239/395 366/273/395 363/274/395 351/240/395
f 350/244/396 362/251/396 367/272/396 356/245/396
f 362/251/397 368/253/397 371/235/397 367/272/397
f 366/273/398 365/236/398 369/254/398 363/274/398
f 365/236/399 370/237/399 361/255/399 369/254/399
f 368/253/400 360/256/400 364/238/400 371/235/400
f 358/257/401 368/258/401 362/251/401 350/244/401
f 344/259/402 360/260/402 368/258/402 358/257/402
f 356/245/403 367/272/403 366/273/403 348/275/403 381/276/403 385/261/403
f 359/263/404 369/266/404 361/265/404 346/264/404
f 351/240/405 363/274/405 369/266/405 359/263/405
f 331/210/406 336/201/406 388/277/406 385/278/406 381/279/406
f 384/280/407 335/221/407 333/222/407 383/281/407
f 383/281/408 333/222/408 380/226/408
f 383/282/409 380/283/409 376/284/409 377/285/409 353/254/409 347/236/409
f 374/286/410 340/214/410 378/287/410 379/288/410
f 388/289/411 336/201/411 332/223/411 389/290/411
f 392/291/412 390/292/412 387/293/412 386/294/412 384/295/412 383/282/412 347/236/412 357/235/412
f 386/225/413 335/224/413 384/296/413
f 348/297/414 331/210/414 381/279/414
f 391/298/415 332/223/415 328/197/415 392/299/415 393/300/415
f 378/287/416 340/214/416 338/213/416 382/212/416
f 392/301/417 328/197/417 390/200/417
f 394/302/418 395/303/418 397/304/418 396/305/418
f 397/304/419 395/303/419 398/303/419 399/304/419
f 402/305/420 403/306/420 401/304/420 400/305/420
f 396/305/420 397/304/420 403/306/420 402/305/420
f 401/304/419 403/306/419 405/306/419 404/304/419
f 404/304/419 405/306/419 406/304/419
f 409/305/421 410/304/421 408/304/421 407/305/421
f 400/305/421 401/304/421 410/304/421 409/305/421
f 408/304/422 410/304/422 412/304/422 411/304/422
f 411/304/423 412/304/423 414/304/423 413/304/423
f 395/303/424 394/302/424 415/302/424 416/303/424
f 395/303/425 416/303/425 417/303/425
o Icosphere
v 0.090937 2.471508 0.070699
v 0.077133 2.464764 0.036679
v 0.096541 2.468045 0.047800
v 0.078585 2.490335 0.072726
v 0.060475 2.490335 0.059681
v -0.011194 2.498478 -0.003790
v 0.080391 2.500346 0.059534
v 0.076626 2.458034 0.059534
v 0.087422 2.458813 0.053740
v 0.060427 2.468045 0.059534
v 0.063507 2.463627 0.048501
v 0.100720 2.480330 0.053740
v 0.071677 2.475677 0.074765
v 0.056296 2.478050 0.053740
v 0.085372 2.480330 0.032615
v 0.096589 2.490335 0.047946
v 0.091462 2.494109 0.066982
v 0.069594 2.499567 0.053740
v 0.083514 2.494100 0.038335
v 0.033900 2.477583 0.020142
v 0.036908 2.477834 0.017533
v 0.032308 2.480766 0.021299
v 0.033231 2.483478 0.022610
v 0.035244 2.485516 0.021299
v 0.038316 2.484309 0.017898
v 0.038727 2.481270 0.016636
vn 0.7666 -0.5801 0.2754
vn -0.1658 -0.9450 -0.2820
vn -0.0830 -0.9555 -0.2832
vn 0.8617 -0.4262 0.2754
vn 0.4992 -0.4565 -0.7365
vn 0.8090 0.0090 -0.5878
vn 0.0384 0.7935 0.6074
vn -0.3933 0.7398 0.5459
vn -0.0371 0.9307 -0.3638
vn 0.5625 0.8119 -0.1563
vn 0.3389 0.9361 -0.0943
vn 0.0764 0.9594 -0.2714
vn -0.5825 0.7603 0.2874
vn -0.3439 0.7701 0.5373
vn 0.8090 -0.0063 -0.5878
vn 0.6170 0.3714 -0.6938
vn -0.7045 -0.5255 0.4769
vn -0.8045 -0.0134 0.5938
vn 0.2924 -0.3835 -0.8760
vn -0.5449 0.3620 0.7564
vn 0.3681 0.1425 0.9188
vn 0.8489 0.0665 0.5243
vn 0.8809 0.4495 0.1481
vn 0.3042 0.4001 -0.8645
vn -0.1699 -0.9429 -0.2866
vn -0.9031 -0.4212 -0.0835
vn -0.8076 -0.0104 0.5896
vn -0.8066 0.0092 0.5911
vn 0.2137 0.0351 0.9763
vn 0.4211 -0.7470 -0.5145
vn -0.5161 -0.8351 0.1903
vn -0.4076 -0.6596 0.6315
vn 0.0197 -0.6502 0.7595
vn 0.3353 -0.7862 0.5191
vn -0.2034 0.6640 0.7196
vn -0.2318 -0.9060 -0.3543
vn 0.2428 -0.3633 -0.8995
vn 0.4610 0.3927 -0.7958
vn -0.5502 -0.2044 0.8097
vn -0.5757 -0.5178 0.6328
vn 0.3010 0.9514 -0.0656
vt 0.226863 0.183776
vt 0.363637 0.078731
vt 0.408476 0.157461
vt 0.727273 0.000000
vt 0.750000 0.118096
vt 0.620885 0.131146
vt 0.545455 0.000000
vt 0.590500 0.131146
vt 0.500000 0.078731
vt 0.363637 0.236191
vt 0.545455 0.236191
vt 0.135748 0.314921
vt 0.295455 0.354286
vt 0.249693 0.432483
vt 0.000000 0.314921
vt 0.045455 0.393651
vt 0.681818 0.393651
vt 0.568490 0.354820
vt 0.409092 0.393651
vt 0.522420 0.354820
vt 0.454546 0.472382
vt 0.409708 0.314921
vt 0.636364 0.472382
vt 0.113945 0.432483
vt 0.818182 0.236191
vt 0.863021 0.314921
vt 0.091053 0.210339
vt 0.864253 0.157461
vt 0.984807 0.183776
vt 0.863636 0.078731
vt 0.932127 0.039899
vt 0.158784 0.039899
vt 0.227273 0.078731
s 0
f 418/307/426 426/308/426 420/309/426
f 425/310/427 428/311/427 419/312/427
f 425/313/428 419/314/428 426/315/428
f 418/307/429 420/309/429 429/316/429
f 420/309/430 419/314/430 432/317/430
f 420/309/431 432/317/431 429/316/431
f 421/318/432 434/319/432 424/320/432
f 422/321/433 421/318/433 435/322/433
f 435/323/434 436/324/434 442/324/434 441/323/434
f 434/325/435 436/326/435 424/327/435
f 434/325/436 433/328/436 436/326/436
f 436/324/437 435/323/437 424/329/437
f 422/321/438 435/322/438 441/322/438 440/321/438
f 435/322/439 421/318/439 424/330/439
f 429/316/440 432/317/440 433/328/440
f 432/317/441 436/326/441 433/328/441
f 428/311/442 431/331/442 439/331/442 437/311/442
f 431/331/443 422/332/443 440/332/443 439/331/443
f 432/317/444 419/314/444 438/314/444 443/317/444
f 430/333/445 421/318/445 422/321/445
f 418/307/446 434/319/446 421/318/446
f 418/307/447 429/316/447 434/319/447
f 429/316/448 433/328/448 434/319/448
f 436/326/449 432/317/449 443/317/449 442/326/449
f 419/312/450 428/311/450 437/311/450 438/312/450
f 428/311/451 427/334/451 431/331/451
f 431/331/452 430/335/452 422/332/452
f 431/331/453 427/334/453 430/335/453
f 430/333/454 418/307/454 421/318/454
f 426/315/455 419/314/455 420/309/455
f 428/336/456 425/337/456 427/334/456
f 425/337/457 430/335/457 427/334/457
f 425/338/458 418/307/458 430/333/458
f 425/338/459 426/339/459 418/307/459
f 440/321/460 441/322/460 423/321/460
f 438/312/461 437/311/461 423/312/461
f 443/317/462 438/314/462 423/317/462
f 442/326/463 443/317/463 423/326/463
f 439/331/464 440/332/464 423/331/464
f 437/311/465 439/331/465 423/311/465
f 441/323/466 442/324/466 423/323/466
o NurbsPath
v -0.064260 1.503257 -0.065006
v -0.065893 1.542445 -0.105769
v -0.083114 1.503257 -0.142753
v -0.081481 1.464069 -0.101989
v -0.166265 1.538649 0.006570
v -0.185293 1.585506 -0.018776
v -0.235681 1.560940 -0.026362
v -0.216653 1.514083 -0.001017
v -0.135924 1.568175 0.096007
v -0.153373 1.621229 0.087017
v -0.200117 1.610966 0.117178
v -0.182668 1.557912 0.126168
v -0.060028 1.598645 0.177307
v -0.072127 1.653801 0.173928
v -0.101885 1.650212 0.221903
v -0.089786 1.595056 0.225282
v 0.033132 1.613477 0.209141
v 0.029121 1.669898 0.208335
v 0.026114 1.670491 0.264821
v 0.030126 1.614070 0.265626
v 0.119359 1.612002 0.190368
v 0.121036 1.668504 0.188201
v 0.149267 1.669546 0.237211
v 0.147590 1.613044 0.239378
v 0.163788 1.606240 0.144896
v 0.163739 1.662809 0.144988
v 0.218458 1.662833 0.159336
v 0.218507 1.606264 0.159244
v 0.149404 1.610199 0.089258
v 0.151215 1.665494 0.101055
v 0.198875 1.670351 0.070973
v 0.197064 1.615056 0.059176
v 0.069728 1.639066 0.032173
v 0.081383 1.690379 0.052939
v 0.110700 1.702657 0.006144
v 0.099046 1.651345 -0.014621
v -0.053801 1.700558 -0.007368
v -0.032785 1.747113 0.016942
v -0.011124 1.763282 -0.032751
v -0.032140 1.716727 -0.057060
v -0.186412 1.789037 -0.030223
v -0.158205 1.830699 -0.004366
v -0.136494 1.846835 -0.054048
v -0.164702 1.805173 -0.079905
v -0.296596 1.891520 -0.051524
v -0.262081 1.927074 -0.024237
v -0.235161 1.938165 -0.072738
v -0.269676 1.902611 -0.100025
v -0.364783 1.997487 -0.079536
v -0.323885 2.022503 -0.049510
v -0.290727 2.023295 -0.095335
v -0.331625 1.998279 -0.125361
v -0.384912 2.100202 -0.109012
v -0.340980 2.107999 -0.074239
v -0.305407 2.095086 -0.116285
v -0.349339 2.087288 -0.151058
v -0.359369 2.191629 -0.132931
v -0.320345 2.181553 -0.093237
v -0.288795 2.153992 -0.131250
v -0.327819 2.164068 -0.170944
v -0.297470 2.263371 -0.154863
v -0.266665 2.243369 -0.111839
v -0.245533 2.203226 -0.145633
v -0.276337 2.223228 -0.188656
v -0.210785 2.311409 -0.183868
v -0.186864 2.287556 -0.138494
v -0.180020 2.239419 -0.167408
v -0.203941 2.263272 -0.212782
v -0.107965 2.328029 -0.219876
v -0.093738 2.302778 -0.171296
v -0.103645 2.252226 -0.194670
v -0.117872 2.277477 -0.243250
v -0.001616 2.300339 -0.249419
v -0.002952 2.279027 -0.197035
v -0.028166 2.232350 -0.216669
v -0.026830 2.253661 -0.269052
v 0.090162 2.236058 -0.251174
v 0.067493 2.228587 -0.199887
v 0.036575 2.185610 -0.219814
v 0.059243 2.193082 -0.271101
v 0.149356 2.172999 -0.203579
v 0.104624 2.187294 -0.172040
v 0.078287 2.139798 -0.187866
v 0.123018 2.125503 -0.219406
v 0.163551 2.147765 -0.103965
v 0.112494 2.172119 -0.103966
v 0.088250 2.121293 -0.109350
v 0.139308 2.096939 -0.109349
v 0.136476 2.156165 0.022619
v 0.088901 2.180486 0.004043
v 0.064320 2.129663 0.000456
v 0.111896 2.105342 0.019032
v 0.080180 2.170226 0.139909
v 0.038338 2.193286 0.109620
v 0.016086 2.141951 0.101277
v 0.057928 2.118891 0.131567
v 0.009624 2.180833 0.220894
v -0.020302 2.201188 0.177419
v -0.041351 2.149580 0.167744
v -0.011425 2.129225 0.211219
v -0.056855 2.204319 0.256765
v -0.064724 2.215207 0.201815
v -0.094208 2.167220 0.196529
v -0.086339 2.156332 0.251479
v -0.111432 2.250141 0.254250
v -0.099568 2.246545 0.199056
v -0.136597 2.204096 0.193863
v -0.148461 2.207693 0.249057
v -0.164127 2.300117 0.227391
v -0.143501 2.289271 0.175846
v -0.176144 2.243195 0.172479
v -0.196771 2.254041 0.224024
v -0.214048 2.328201 0.198029
v -0.190772 2.315229 0.148130
v -0.225601 2.270905 0.143405
v -0.248877 2.283876 0.193305
v -0.233053 2.346615 0.185053
v -0.206524 2.326220 0.139443
v -0.256476 2.316415 0.114773
v -0.283005 2.336810 0.160383
v -0.179671 2.418973 0.168258
v -0.163648 2.377283 0.133542
v -0.199289 2.396485 0.094033
v -0.215312 2.438175 0.128749
v 0.003182 2.492198 0.051617
v -0.008345 2.438875 0.036656
v -0.044929 2.457679 -0.002176
v -0.033402 2.511002 0.012784
vn 0.2295 -0.7093 0.6665
vn 0.6017 0.5724 0.5570
vn -0.2329 0.7109 -0.6636
vn -0.3137 0.8358 -0.4506
vn -0.3135 0.8354 -0.4514
vn -0.6213 -0.5657 -0.5422
vn 0.3712 -0.9074 0.1971
vn 0.3237 -0.9344 0.1485
vn 0.3241 -0.9342 0.1489
vn 0.9095 0.2084 -0.3597
vn 0.8248 0.1640 -0.5411
vn 0.8237 0.1635 -0.5429
vn -0.3247 0.9330 -0.1550
vn -0.3250 0.9329 -0.1553
vn -0.9211 -0.2278 0.3156
vn -0.8348 -0.1747 0.5221
vn -0.8340 -0.1742 0.5236
vn 0.2138 -0.9750 0.0599
vn 0.5274 0.0633 -0.8472
vn 0.5275 0.0634 -0.8472
vn -0.2137 0.9751 -0.0598
vn -0.5250 -0.0628 0.8488
vn 0.0715 -0.9973 0.0183
vn 0.0714 -0.9973 0.0183
vn 0.3210 0.0108 -0.9470
vn -0.0721 0.9972 -0.0181
vn -0.0720 0.9972 -0.0181
vn -0.3169 -0.0102 0.9484
vn -0.0227 -0.9989 0.0413
vn -0.2137 -0.0301 -0.9764
vn 0.0225 0.9989 -0.0418
vn 0.2186 0.0302 0.9754
vn -0.0018 -0.9999 -0.0118
vn -0.0017 -0.9999 -0.0120
vn -0.7135 -0.0026 -0.7007
vn 0.0020 1.0000 0.0091
vn 0.0018 1.0000 0.0094
vn 0.7483 0.0014 0.6634
vn -0.0389 -0.9775 -0.2073
vn -0.0394 -0.9773 -0.2082
vn -0.9655 -0.0124 0.2601
vn 0.0393 0.9778 0.2060
vn 0.0401 0.9775 0.2073
vn 0.9772 0.0072 -0.2121
vn -0.2048 -0.9071 -0.3677
vn -0.2053 -0.9069 -0.3679
vn -0.6061 -0.1613 0.7789
vn -0.5114 -0.2150 0.8320
vn -0.5115 -0.2149 0.8320
vn 0.2059 0.9065 0.3685
vn 0.2065 0.9063 0.3688
vn 0.6260 0.1544 -0.7644
vn 0.5234 0.2112 -0.8255
vn 0.5235 0.2111 -0.8254
vn -0.3710 -0.8230 -0.4301
vn -0.3711 -0.8230 -0.4301
vn -0.3822 -0.2853 0.8789
vn 0.3716 0.8227 0.4303
vn 0.3717 0.8226 0.4303
vn 0.3835 0.2847 -0.8786
vn -0.4987 -0.7366 -0.4569
vn -0.4988 -0.7365 -0.4569
vn -0.3841 -0.2847 0.8783
vn 0.4987 0.7366 0.4568
vn 0.4988 0.7366 0.4569
vn 0.3835 0.2852 -0.8784
vn -0.6112 -0.6281 -0.4816
vn -0.6112 -0.6280 -0.4816
vn -0.4763 -0.1952 0.8574
vn -0.4762 -0.1952 0.8574
vn 0.6102 0.6293 0.4812
vn 0.6103 0.6293 0.4812
vn 0.4753 0.1964 -0.8576
vn 0.4752 0.1964 -0.8577
vn -0.7238 -0.4405 -0.5312
vn -0.7238 -0.4404 -0.5312
vn -0.5860 -0.0132 0.8102
vn -0.5859 -0.0134 0.8102
vn 0.7225 0.4438 0.5301
vn 0.7225 0.4437 0.5302
vn 0.5856 0.0142 -0.8105
vn 0.5855 0.0144 -0.8105
vn -0.7751 -0.1381 -0.6165
vn -0.7751 -0.1380 -0.6165
vn -0.6290 0.2289 0.7429
vn -0.6290 0.2288 0.7429
vn 0.7748 0.1389 0.6167
vn 0.7748 0.1387 0.6168
vn 0.6291 -0.2278 -0.7432
vn -0.6902 0.1748 -0.7022
vn -0.6901 0.1749 -0.7022
vn -0.5572 0.4876 0.6722
vn -0.5569 0.4880 0.6721
vn 0.6879 -0.1788 0.7035
vn 0.6878 -0.1789 0.7035
vn 0.5575 -0.4868 -0.6725
vn 0.5572 -0.4873 -0.6724
vn -0.5469 0.3538 -0.7588
vn -0.3735 0.7096 0.5975
vn -0.3732 0.7098 0.5974
vn 0.5445 -0.3562 0.7594
vn 0.3736 -0.7095 -0.5975
vn 0.3732 -0.7098 -0.5974
vn -0.4225 0.4240 -0.8011
vn -0.1208 0.8512 0.5108
vn -0.1210 0.8511 0.5108
vn 0.4235 -0.4239 0.8006
vn 0.1214 -0.8510 -0.5109
vn 0.1216 -0.8510 -0.5110
vn -0.2491 0.4463 -0.8595
vn -0.2492 0.4463 -0.8595
vn 0.1750 0.8929 0.4148
vn 0.1746 0.8929 0.4150
vn 0.2527 -0.4466 0.8583
vn 0.2528 -0.4466 0.8583
vn -0.1761 -0.8927 -0.4148
vn -0.1755 -0.8928 -0.4149
vn 0.0280 0.3740 -0.9270
vn 0.0271 0.3745 -0.9268
vn 0.4424 0.8246 0.3526
vn 0.4421 0.8247 0.3526
vn -0.0200 -0.3779 0.9256
vn -0.0188 -0.3784 0.9254
vn -0.4459 -0.8229 -0.3523
vn -0.4455 -0.8230 -0.3523
vn 0.1876 0.2958 -0.9366
vn 0.5414 0.7621 0.3551
vn -0.1762 -0.3029 0.9366
vn -0.5416 -0.7627 -0.3537
vn -0.5415 -0.7627 -0.3537
vn 0.5907 -0.0557 -0.8049
vn 0.4782 0.8361 0.2686
vn 0.4783 0.8361 0.2687
vn -0.5748 0.0408 0.8173
vn -0.4766 -0.8369 -0.2689
vn -0.4768 -0.8368 -0.2691
vn 0.8844 -0.4048 -0.2324
vn 0.9016 -0.4325 -0.0092
vn 0.9015 -0.4326 -0.0080
vn 0.4272 0.8991 0.0954
vn 0.4271 0.8991 0.0957
vn -0.8879 0.4130 0.2029
vn -0.9001 0.4355 -0.0100
vn -0.9001 0.4356 -0.0116
vn -0.4276 -0.8987 -0.0980
vn -0.4275 -0.8987 -0.0982
vn 0.8415 -0.4304 0.3264
vn 0.8414 -0.4304 0.3267
vn 0.4316 0.8999 0.0629
vn -0.8402 0.4301 -0.3303
vn -0.8401 0.4301 -0.3306
vn -0.4316 -0.8998 -0.0629
vn 0.7387 -0.4072 0.5371
vn 0.7388 -0.4072 0.5369
vn 0.3904 0.9092 0.1447
vn -0.7409 0.4076 -0.5338
vn -0.7410 0.4076 -0.5336
vn -0.3902 -0.9093 -0.1448
vn 0.5242 -0.3604 0.7716
vn 0.5256 -0.3607 0.7705
vn 0.3699 0.9138 0.1679
vn 0.3699 0.9138 0.1678
vn -0.5323 0.3632 -0.7647
vn -0.5342 0.3637 -0.7632
vn -0.3734 -0.9126 -0.1663
vn 0.3602 -0.3147 0.8782
vn 0.5239 0.8448 0.1089
vn 0.5237 0.8449 0.1089
vn -0.3723 0.3198 -0.8713
vn -0.5230 -0.8456 -0.1069
vn -0.5229 -0.8457 -0.1069
vn -0.0856 -0.0523 0.9950
vn -0.2064 0.0560 0.9769
vn -0.2076 0.0571 0.9765
vn 0.6552 0.7504 0.0873
vn 0.6552 0.7504 0.0872
vn 0.1040 0.0387 -0.9938
vn 0.2189 -0.0657 -0.9735
vn 0.2206 -0.0673 -0.9730
vn -0.6534 -0.7518 -0.0882
vn -0.3617 0.1915 0.9124
vn 0.5767 0.8152 0.0527
vn 0.5766 0.8153 0.0526
vn 0.3655 -0.1947 -0.9102
vn -0.5816 -0.8116 -0.0552
vn -0.5814 -0.8117 -0.0551
vn -0.4217 0.2224 0.8790
vn -0.4218 0.2225 0.8790
vn 0.5550 0.8313 0.0285
vn 0.5577 0.8295 0.0294
vn 0.4196 -0.2168 -0.8815
vn 0.4183 -0.2169 -0.8820
vn -0.6397 -0.7626 -0.0962
vn -0.6415 -0.7609 -0.0974
vn -0.4651 0.3783 0.8003
vn -0.4654 0.3812 0.7988
vn 0.6251 0.7787 0.0540
vn 0.4655 -0.3644 -0.8066
vn 0.4653 -0.3636 -0.8070
vn -0.7642 -0.6187 -0.1824
vn -0.4724 0.5263 0.7070
vn 0.6537 -0.3906 0.6482
vn 0.6258 -0.3708 0.6862
vn 0.6256 -0.3707 0.6865
vn 0.4792 -0.5107 -0.7138
vn -0.7170 0.3138 -0.6224
vn -0.6589 0.3328 -0.6746
vn -0.6585 0.3329 -0.6750
vn -0.0504 0.8795 0.4732
vn 0.5959 -0.3498 0.7229
vn 0.0524 -0.8786 -0.4746
vn -0.5957 0.3499 -0.7230
vt 0.000000 1.000000
vt 0.032258 1.000000
vt 0.032258 0.750000
vt 0.000000 0.750000
vt 0.000000 0.250000
vt 0.032258 0.250000
vt 0.032258 0.000000
vt 0.000000 0.000000
vt 0.000000 0.500000
vt 0.032258 0.500000
vt 0.064516 1.000000
vt 0.064516 0.750000
vt 0.064516 0.250000
vt 0.064516 0.000000
vt 0.064516 0.500000
vt 0.096774 1.000000
vt 0.096774 0.750000
vt 0.096774 0.250000
vt 0.096774 0.000000
vt 0.096774 0.500000
vt 0.129032 1.000000
vt 0.129032 0.750000
vt 0.129032 0.250000
vt 0.129032 0.000000
vt 0.129032 0.500000
vt 0.161290 1.000000
vt 0.161290 0.750000
vt 0.161290 0.250000
vt 0.161290 0.000000
vt 0.161290 0.500000
vt 0.193548 1.000000
vt 0.193548 0.750000
vt 0.193548 0.250000
vt 0.193548 0.000000
vt 0.193548 0.500000
vt 0.225806 1.000000
vt 0.225806 0.750000
vt 0.225806 0.250000
vt 0.225806 0.000000
vt 0.225806 0.500000
vt 0.258065 1.000000
vt 0.258065 0.750000
vt 0.258065 0.250000
vt 0.258065 0.000000
vt 0.258065 0.500000
vt 0.290323 1.000000
vt 0.290323 0.750000
vt 0.290323 0.250000
vt 0.290323 0.000000
vt 0.290323 0.500000
vt 0.322581 1.000000
vt 0.322581 0.750000
vt 0.322581 0.250000
vt 0.322581 0.000000
vt 0.322581 0.500000
vt 0.354839 1.000000
vt 0.354839 0.750000
vt 0.354839 0.250000
vt 0.354839 0.000000
vt 0.354839 0.500000
vt 0.387097 1.000000
vt 0.387097 0.750000
vt 0.387097 0.250000
vt 0.387097 0.000000
vt 0.387097 0.500000
vt 0.419355 1.000000
vt 0.419355 0.750000
vt 0.419355 0.250000
vt 0.419355 0.000000
vt 0.419355 0.500000
vt 0.451613 1.000000
vt 0.451613 0.750000
vt 0.451613 0.250000
vt 0.451613 0.000000
vt 0.451613 0.500000
vt 0.483871 1.000000
vt 0.483871 0.750000
vt 0.483871 0.250000
vt 0.483871 0.000000
vt 0.483871 0.500000
vt 0.516129 1.000000
vt 0.516129 0.750000
vt 0.516129 0.250000
vt 0.516129 0.000000
vt 0.516129 0.500000
vt 0.548387 1.000000
vt 0.548387 0.750000
vt 0.548387 0.250000
vt 0.548387 0.000000
vt 0.548387 0.500000
vt 0.580645 1.000000
vt 0.580645 0.750000
vt 0.580645 0.250000
vt 0.580645 0.000000
vt 0.580645 0.500000
vt 0.612903 1.000000
vt 0.612903 0.750000
vt 0.612903 0.250000
vt 0.612903 0.000000
vt 0.612903 0.500000
vt 0.645161 1.000000
vt 0.645161 0.750000
vt 0.645161 0.250000
vt 0.645161 0.000000
vt 0.645161 0.500000
vt 0.677419 1.000000
vt 0.677419 0.750000
vt 0.677419 0.250000
vt 0.677419 0.000000
vt 0.677419 0.500000
vt 0.709677 1.000000
vt 0.709677 0.750000
vt 0.709677 0.250000
vt 0.709677 0.000000
vt 0.709677 0.500000
vt 0.741935 1.000000
vt 0.741935 0.750000
vt 0.741935 0.250000
vt 0.741935 0.000000
vt 0.741935 0.500000
vt 0.774194 1.000000
vt 0.774194 0.750000
vt 0.774194 0.250000
vt 0.774194 0.000000
vt 0.774194 0.500000
vt 0.806452 1.000000
vt 0.806452 0.750000
vt 0.806452 0.250000
vt 0.806452 0.000000
vt 0.806452 0.500000
vt 0.838710 1.000000
vt 0.838710 0.750000
vt 0.838710 0.250000
vt 0.838710 0.000000
vt 0.838710 0.500000
vt 0.870968 1.000000
vt 0.870968 0.750000
vt 0.870968 0.250000
vt 0.870968 0.000000
vt 0.870968 0.500000
vt 0.903226 1.000000
vt 0.903226 0.750000
vt 0.903226 0.250000
vt 0.903226 0.000000
vt 0.903226 0.500000
vt 0.935484 1.000000
vt 0.935484 0.750000
vt 0.935484 0.250000
vt 0.935484 0.000000
vt 0.935484 0.500000
vt 0.967742 1.000000
vt 0.967742 0.750000
vt 0.967742 0.250000
vt 0.967742 0.000000
vt 0.967742 0.500000
vt 1.000000 1.000000
vt 1.000000 0.750000
vt 1.000000 0.250000
vt 1.000000 0.000000
vt 1.000000 0.500000
s 1
f 444/340/467 448/341/467 451/342/467 447/343/467
f 445/344/468 449/345/468 448/346/468 444/347/468
f 446/348/469 450/349/470 449/345/471 445/344/469
f 447/343/472 451/342/472 450/349/472 446/348/472
f 448/341/473 452/350/474 455/351/475 451/342/473
f 449/345/476 453/352/477 452/353/478 448/346/476
f 450/349/470 454/354/479 453/352/480 449/345/471
f 451/342/481 455/351/482 454/354/483 450/349/481
f 452/350/474 456/355/484 459/356/484 455/351/475
f 453/352/477 457/357/485 456/358/486 452/353/478
f 454/354/479 458/359/487 457/357/487 453/352/480
f 455/351/482 459/356/488 458/359/488 454/354/483
f 456/355/484 460/360/489 463/361/490 459/356/484
f 457/357/485 461/362/491 460/363/491 456/358/486
f 458/359/487 462/364/492 461/362/493 457/357/487
f 459/356/488 463/361/494 462/364/494 458/359/488
f 460/360/489 464/365/495 467/366/495 463/361/490
f 461/362/496 465/367/496 464/368/496 460/363/496
f 462/364/492 466/369/497 465/367/497 461/362/493
f 463/361/498 467/366/498 466/369/498 462/364/498
f 464/365/495 468/370/499 471/371/500 467/366/495
f 465/367/501 469/372/501 468/373/501 464/368/501
f 466/369/497 470/374/502 469/372/503 465/367/497
f 467/366/504 471/371/504 470/374/504 466/369/504
f 468/370/499 472/375/505 475/376/506 471/371/500
f 469/372/507 473/377/507 472/378/507 468/373/507
f 470/374/502 474/379/508 473/377/509 469/372/503
f 471/371/510 475/376/510 474/379/510 470/374/510
f 472/375/505 476/380/511 479/381/512 475/376/506
f 473/377/513 477/382/514 476/383/515 472/378/513
f 474/379/508 478/384/516 477/382/517 473/377/509
f 475/376/518 479/381/519 478/384/520 474/379/518
f 476/380/511 480/385/521 483/386/522 479/381/512
f 477/382/514 481/387/523 480/388/523 476/383/515
f 478/384/516 482/389/524 481/387/525 477/382/517
f 479/381/519 483/386/526 482/389/526 478/384/520
f 480/385/521 484/390/527 487/391/528 483/386/522
f 481/387/523 485/392/529 484/393/529 480/388/523
f 482/389/524 486/394/530 485/392/531 481/387/525
f 483/386/526 487/391/532 486/394/532 482/389/526
f 484/390/527 488/395/533 491/396/534 487/391/528
f 485/392/529 489/397/535 488/398/536 484/393/529
f 486/394/530 490/399/537 489/397/538 485/392/531
f 487/391/532 491/396/539 490/399/540 486/394/532
f 488/395/533 492/400/541 495/401/542 491/396/534
f 489/397/535 493/402/543 492/403/544 488/398/536
f 490/399/537 494/404/545 493/402/546 489/397/538
f 491/396/539 495/401/547 494/404/548 490/399/540
f 492/400/541 496/405/549 499/406/550 495/401/542
f 493/402/543 497/407/551 496/408/552 492/403/544
f 494/404/545 498/409/553 497/407/554 493/402/546
f 495/401/547 499/406/555 498/409/555 494/404/548
f 496/405/549 500/410/556 503/411/557 499/406/550
f 497/407/551 501/412/558 500/413/559 496/408/552
f 498/409/553 502/414/560 501/412/561 497/407/554
f 499/406/555 503/411/562 502/414/563 498/409/555
f 500/410/556 504/415/564 507/416/564 503/411/557
f 501/412/558 505/417/565 504/418/566 500/413/559
f 502/414/560 506/419/567 505/417/567 501/412/561
f 503/411/562 507/416/568 506/419/569 502/414/563
f 504/415/564 508/420/570 511/421/570 507/416/564
f 505/417/565 509/422/571 508/423/572 504/418/566
f 506/419/567 510/424/573 509/422/573 505/417/567
f 507/416/568 511/421/574 510/424/575 506/419/569
f 508/420/570 512/425/576 515/426/577 511/421/570
f 509/422/571 513/427/578 512/428/579 508/423/572
f 510/424/573 514/429/580 513/427/581 509/422/573
f 511/421/574 515/426/582 514/429/583 510/424/575
f 512/425/576 516/430/584 519/431/585 515/426/577
f 513/427/578 517/432/586 516/433/587 512/428/579
f 514/429/580 518/434/588 517/432/589 513/427/581
f 515/426/582 519/431/590 518/434/591 514/429/583
f 516/430/584 520/435/592 523/436/592 519/431/585
f 517/432/586 521/437/593 520/438/593 516/433/587
f 518/434/588 522/439/594 521/437/594 517/432/589
f 519/431/590 523/436/595 522/439/596 518/434/591
f 520/435/597 524/440/597 527/441/597 523/436/597
f 521/437/593 525/442/598 524/443/599 520/438/593
f 522/439/600 526/444/600 525/442/600 521/437/600
f 523/436/595 527/441/601 526/444/602 522/439/596
f 524/440/603 528/445/604 531/446/605 527/441/603
f 525/442/598 529/447/606 528/448/607 524/443/599
f 526/444/608 530/449/609 529/447/610 525/442/608
f 527/441/601 531/446/611 530/449/612 526/444/602
f 528/445/604 532/450/613 535/451/614 531/446/605
f 529/447/606 533/452/615 532/453/615 528/448/607
f 530/449/609 534/454/616 533/452/617 529/447/610
f 531/446/611 535/451/618 534/454/618 530/449/612
f 532/450/613 536/455/619 539/456/620 535/451/614
f 533/452/615 537/457/621 536/458/621 532/453/615
f 534/454/616 538/459/622 537/457/623 533/452/617
f 535/451/618 539/456/624 538/459/624 534/454/618
f 536/455/619 540/460/625 543/461/626 539/456/620
f 537/457/621 541/462/627 540/463/628 536/458/621
f 538/459/622 542/464/629 541/462/630 537/457/623
f 539/456/624 543/461/631 542/464/631 538/459/624
f 540/460/625 544/465/632 547/466/632 543/461/626
f 541/462/627 545/467/633 544/468/634 540/463/628
f 542/464/629 546/469/635 545/467/635 541/462/630
f 543/461/631 547/466/636 546/469/637 542/464/631
f 544/465/638 548/470/639 551/471/640 547/466/638
f 545/467/633 549/472/641 548/473/642 544/468/634
f 546/469/643 550/474/644 549/472/645 545/467/643
f 547/466/636 551/471/646 550/474/646 546/469/637
f 548/470/639 552/475/647 555/476/647 551/471/640
f 549/472/641 553/477/648 552/478/649 548/473/642
f 550/474/644 554/479/650 553/477/650 549/472/645
f 551/471/646 555/476/651 554/479/652 550/474/646
f 552/475/647 556/480/653 559/481/654 555/476/647
f 553/477/648 557/482/655 556/483/656 552/478/649
f 554/479/650 558/484/657 557/482/658 553/477/650
f 555/476/651 559/481/659 558/484/660 554/479/652
f 556/480/653 560/485/661 563/486/662 559/481/654
f 557/482/655 561/487/663 560/488/663 556/483/656
f 558/484/657 562/489/664 561/487/665 557/482/658
f 559/481/659 563/486/666 562/489/666 558/484/660
f 560/485/661 564/490/667 567/491/667 563/486/662
f 561/487/668 565/492/669 564/493/670 560/488/668
f 562/489/664 566/494/671 565/492/671 561/487/665
f 563/486/672 567/491/673 566/494/674 562/489/672
f 564/490/675 568/495/675 571/496/675 567/491/675
f 565/492/669 569/497/676 568/498/676 564/493/670
f 566/494/677 570/499/677 569/497/677 565/492/677
f 567/491/673 571/496/678 570/499/678 566/494/674
o BézierCircle
v -0.040000 0.000000 0.000000
v 0.000000 0.000000 -0.040000
v 0.040000 0.000000 0.000000
v 0.000000 0.000000 0.040000
l 572 573
l 573 574
l 574 575
l 575 572
